<svg xmlns="http://www.w3.org/2000/svg" version="1.1" xmlns:xlink="http://www.w3.org/1999/xlink" xmlns:svgjs="http://svgjs.dev/svgjs" viewBox="0 0 800 800" opacity="0.48"><defs><linearGradient x1="50%" y1="0%" x2="50%" y2="100%" id="ssscribble-grad"><stop stop-color="hsl(184, 74%, 44%)" stop-opacity="1" offset="0%"></stop><stop stop-color="hsl(332, 87%, 70%)" stop-opacity="1" offset="100%"></stop></linearGradient></defs><g fill="none" stroke-width="1.5" stroke="url(#ssscribble-grad)" stroke-linecap="round"><path d="M979.2 595.94C1058.69 613.03 1123.85 634.85 1170.15 660.88 1195.91 686.56 1198.37 715.76 1178.26 747.39 1079.59 805.98 928.64 863.51 766.8 903.46 625.6 915.97 534.32 888.27 500.97 811.23 524.42 710.41 587.15 589.89 666.76 489.67 757.47 461.73 832.23 525.67 881.8 687.82 916.34 991.09 852.39 1004.78 789.7 692.46 767.08 618.32 745.17 582.35 724.56 592.44 703.74 649 684.63 744.3 667.54 864.25 650.46 989.22 635.8 1096.81 623.34 1170.45 610.67 1201.02 599.79 1183.27 590.18 1121.71 568.4 908.81 546.29 682.4 516.68 552.85 474.07 567.88 413.19 701.53 328.28 874.47 226.05 1023.07 102.22 1079.8 -33.27 1038.74 -157.67 917.53 -260.91 757.1 -319.94 600.1 -322.17 456.65 -261.54 354.47 -145.39 290.23 -8.6 252.68 122.89 234.38 208.38 219.93 221.89 215.33 214.4 208.82 185.26 199.35 135.59 190.29 68.69 177.44 -10.79 160.36 -96.84 143.27 -180.89 122.35 -256.46 98.13 -319.89 74.32 -364.99 48.04 -389.14 20.42 -373.68 -29.57 -278.9 -73.44 -135.18 -95.12 26.8 -90.11 169.6 -44.22 269.63 46.55 318.27 150.87 315.89 262.25 277.23 338.69 208.28 334.98 134.18 237.75 70.16 53.59 10.63 -154.93 -26.03 -319.24 -40.04 -359.34 -43.67 -254.87 -30.32 -47.93 -5.83 151.79 7.74 206.77 22.81 219.52 38.85 185.59 55.13 108.59 71.93 -0.71 89.01 -125.67 106.1 -245.63 123.08 -339.21 140.07 -392.42 157.31 -399.15 175.03 -358.18 193.68 -277.46 233.64 -47.38 282.45 162.91 345.29 254.79 418.52 198.43 511.46 40.15 623.66 -133.06 740.34 -259.65 863.5 -283.09 977.25 -210.38 1060.71 -65.39 1103.61 104.18 1090.57 257.67 1026.12 387.4 913.98 471.38 777.03 518.1 620.68 539.7 636.52 550.27 728.39 559.65 807.33 566.9 893.11 578.85 979.16 595.93Q979.2 595.94 979.2 595.94" opacity="0.42"></path><path d="M929.7 698.06C1063.85 728.82 1139.47 751.44 1142.68 761.97 1077.97 767.07 960.25 750.93 818.15 708.07 674.61 655.56 556.48 579.23 477.79 491.81 442.57 426.98 448.18 391.71 482.43 414.03 541.84 504.35 606.27 658.32 663.68 847.45 720.1 1012.37 758.76 1106.73 778.55 1085.68 791.36 957.5 788.33 764.35 773.13 591.89 755.24 531.47 729.94 615.73 699.18 814.75 668.43 1029.54 633.67 1145.71 593.56 1114.01 550.76 955.15 497.84 743.7 431.74 569.17 358.65 488.57 269.33 521.08 165.52 633.67 60.71 788.36 -47.87 920.46 -147.59 994.69 -222.15 1005.74 -264.22 951.27 -261.03 856.07 -214.36 731.15 -123.81 605.86 -2.82 496.55 116.73 392.74 216.94 312.2 269.79 252.52 254.71 197.56 172.86 155.98 38.7 125.22 -116.4 94.46 -247.98 75.99 -326.05 72.94 -339.88 74.61 -285.1 99.2 -179.09 149.7 -41.42 205.71 100.22 280.35 223.11 357.88 317.29 405.69 372.2 416.02 391.08 364.67 376.86 250.15 342.34 81.59 300.4 -105.11 248.21 -249.74 203.93 -309.85 173.37 -251.82 144.63 -99.85 132.05 94.08 135.25 241.09 140.1 260.95 158.18 138.59 188.93 -76.17 219.69 -275.22 261.65 -353.28 314.8 -281.03 369.6 -96.72 438.13 113.94 520.17 264.67 604.02 308.29 698.95 241.54 798.54 108.65 887.89 -48.44 966.56 -165.96 1021.11 -215.98 1042.54 -198.01 1024.11 -118.61 961.96 -6.38 871.1 128.43 757.03 255.41 641.9 361.21 558.43 457.38 521.14 529.48 546.82 582.39 636.75 629.86 774.55 667.29 929.66 698.05Q929.7 698.06 929.7 698.06" opacity="0.79"></path><path d="M880.2 431.92C1039.97 462.37 1023.42 424.44 868.74 368.87 739.99 338.78 616.68 314.15 513.61 311.02 435.91 343.2 390.03 416.68 372.6 535.62 381.5 680.44 406.93 838.38 439.21 974.39 481.35 1049.79 518.59 1043.74 545.63 947.45 572.89 794.6 586.86 625.82 586.71 505.05 585.76 487.55 571.72 584.02 544.38 765.25 517.04 959.05 477.7 1081.65 427.09 1090.73 375.69 989.29 311.98 816.62 237.34 635.38 162.94 494.26 80.67 431.86 -3.6 449.72 -78.01 536.23 -142.69 654 -187.42 767.4 -205.82 865.14 -192.36 919.25 -143.11 929.58 -68.51 904.87 30.27 851.33 138.98 784.92 232.23 705.44 299.44 630.23 323.02 567.77 291.88 503.94 209.61 456.91 88.2 429.57 -49.83 402.22 -171.78 395.86 -255.24 408.14 -291.66 419.03 -272.59 444.51 -206.32 476.62 -104.1 495.66 16.61 504.18 137.63 486.77 250.85 434.31 341.95 340.97 406.89 207.41 447.26 58.17 464.38 -92 465.45 -206.99 450.97 -253.33 431.85 -215.47 415.17 -94.41 387.72 145.33 386.71 231.16 420.36 -26.67 447.7 -207.92 488.45 -298.89 540.79 -270.87 592.68 -139.57 654.81 44.76 723.43 217.66 787.5 334.01 851.64 364.58 908.25 317.66 949.33 210.12 971.46 84.59 966.93 -24.4 937.83 -107.51 879.15 -141.74 794.4 -131.79 701.85 -86.52 605.64 -16.88 523.45 60.58 477.21 148.55 473.69 228.25 520.65 292.62 614.64 357.42 742.11 404.57 880.16 431.91Q880.2 431.92 880.2 431.92" opacity="0.15"></path><path d="M830.7 126.33C938.72 150.25 1013.71 165.54 1046.88 175.35 1038.48 188.71 989.09 203.62 909.06 227.51 807.33 264.75 697.82 321.71 592.89 403.82 496.53 502.51 418.59 622.28 361.24 751.82 312.2 911.57 303.64 941.45 317.24 771.46 334.25 565.71 329.4 502.62 299.61 715.75 275.69 887.49 240.72 1010.14 196.55 1050.45 153.15 1003.19 102.29 883.32 47.49 728.38 -2.8 571.26 -51.7 449.88 -93.29 382.44 -122.45 372.79 -136.13 412.91 -128.77 482.83 -102.78 575.08 -53.2 662.42 18.25 731.47 98.26 788.49 186.32 819.08 270.52 826.87 333.01 821.98 368.79 803.32 367.96 778.23 325.56 749.41 245.72 721.3 137.7 697.38 16.89 673.46 -93.4 654.85 -177.29 638.56 -229.02 618.55 -238.93 593.7 -209.66 557.13 -147.19 507.9 -60.21 437.93 38.79 344.04 144.5 238.12 244.14 116.45 330.79 -7.15 405.9 -108.43 463.61 -176.93 505.46 -192.21 534.88 -149.69 553.72 -49.77 566.65 89.8 576.74 280.34 607.36 258.28 639.1 22.82 663.02 -139.22 694.08 -236.6 730.23 -244.82 764.89 -167.06 801.64 -27.34 836.39 132.89 864.92 280.67 885.48 381.62 892.93 423.67 887.95 406.75 864.59 345.27 820.84 261.8 765.55 163.61 694.27 78.18 613.47 16.36 539.36 -28.88 473.83 -46.44 428.88 -42.23 417.14 -24.67 440.65 3.93 501.6 35.68 594.71 70.98 709.85 102.4 830.66 126.32Q830.7 126.33 830.7 126.33" opacity="0.68"></path><path d="M781.2 158.86C875.23 179.36 945.78 209.39 986.62 249.32 998 291.12 977.6 345.88 930.59 414.37 861.94 486.08 779.28 570.85 691.28 664.02 600.28 750.88 515.32 833.07 440.78 898.02 374.42 933.74 321.01 934.18 279.71 892.01 247.15 815.46 223.24 707.34 204.96 584.68 191.38 477.71 179.19 402.23 165.8 380.3 153.65 423.04 137.89 524.69 117.39 666.25 96.89 814.99 72.61 931.78 46.09 992.7 20.81 990.8 -4.29 926.91 -26.24 819.49 -43.49 686.37 -53.35 554.14 -52.39 442.82 -42.69 359.96 -18.72 315.11 20.76 304.53 68.43 324.95 129.08 364.76 198.73 411.93 265.37 469 329.65 519.25 383.27 557 415.25 593.42 423.98 614.83 404.69 621.22 355.94 626.18 281.23 618.27 187.2 597.77 83.74 577.27 -13.19 545.15 -92.99 501.53 -152.66 456.48 -183.18 397.77 -184.27 325.82 -159.19 252.54 -110.39 168.53 -45.09 79.85 33.46 1.08 116.82 -68.16 198.38 -115.47 279.54 -131.78 352.44 -111.25 415.03 -49.75 472.08 40.2 519.09 154.04 557.26 272.14 591.29 364.54 619.56 416.77 643.86 410.78 666.89 341.97 688.33 221.05 708.83 72.32 738.64 -118.01 782.46 -128.23 788.48 37.33 785.85 175.02 772.61 301.54 747.16 399.44 716.18 462.97 672.72 486.85 618.43 478 563.74 439.93 504.69 387.17 447.48 331.91 403.52 270.34 373.1 219.34 363.05 183.15 379.15 150.2 421.33 132.73 488.91 129.6 576.61 128.34 677.7 138.35 781.16 158.85Q781.2 158.86 781.2 158.86" opacity="0.97"></path><path d="M731.7 489.31C877.91 523.48 945.2 603.73 926.7 709.32 839.2 796.11 708.56 862.44 574.51 855.52 440.52 770.71 333.84 601.91 258.4 416.33 192.96 331.7 145.45 401.45 111.28 616.75 77.1 851.31 59.5 950.55 65.72 880.43 81.94 689.97 135.29 478.25 224.49 326.38 360.95 237.14 423.48 282.72 236.7 253.81 64.74 219.65 -67.91 144.02 -128.15 50.26 -119.04 -21.13 -43.67 -61.69 63.29 -23.65 191.81 83.41 310.48 258.88 402.29 424.3 489.96 469.4 551.94 356.35 586.11 121.82 620.3 -93.51 623.44 -149.45 595 -39.79 562.41 170.83 497.07 375.89 413.34 505.49 351.15 557.2 312.01 544.21 327.94 516.63 413.21 470.26 559.7 455.13 731.66 489.3Q731.7 489.31 731.7 489.31" opacity="0.34"></path><path d="M682.2 709.41C839.92 750.49 829.4 749.51 708.41 629.21 607.59 515.86 513.45 385.8 438.78 291.73 365.14 287.7 312.41 386.02 285.07 567.25 257.73 761.06 258.37 879.05 284.64 889.2 311.93 804.31 363.4 659.75 428.39 511.14 478.96 367.69 519.16 264.12 528.38 199.45 491.31 150.5 407.61 117.8 286.2 90.46 148.15 63.12 31.68 43.73 -42.32 45.3 -77.63 62.6 -65.12 123.5 -20.01 231.11 49.06 343.89 126.41 459.46 194.7 524.31 266.44 494.15 320.07 365.11 347.41 171.32 374.76 -9.93 373.23 -97.2 348.86 -73.16 327.95 40.93 293.27 200 260.01 349.18 250.72 482.37 267.19 570.94 322.53 622.69 416.57 657.45 544.11 682.06 682.16 709.4Q682.2 709.41 682.2 709.41" opacity="0.82"></path><path d="M632.7 547.22C726.73 567.73 793.74 559.48 829.07 524.23 839.79 486.87 822.96 422.92 788.36 344.44 740.07 282.26 686.98 234.83 639.58 227.24 589.43 274.22 550.98 376.19 530.48 517.75 509.98 666.5 509.36 778.86 523.98 834.52 535.84 837.71 556.94 789.79 578.35 714.8 586.07 618.53 581.16 525.62 555.41 452.43 505.05 379.41 429.73 330.05 335.7 309.55 232.24 289.04 139.66 299.34 69.2 336.82 15.08 374.48 -11.24 435.39 -13.63 504.79 -1.11 552.91 25.11 579.07 55.52 560.86 90.27 490.17 120.97 369.5 141.48 220.75 161.98 79.19 170.35 -14.46 171.13 -46.41 176.25 -23.79 182.02 45.37 196.37 134.43 225.63 239.78 273.69 335.72 342.84 408.62 428.32 479.4 529.2 526.71 632.66 547.21Q632.7 547.22 632.7 547.22" opacity="0.47"></path><path d="M583.2 203.13C704.6 230.47 768.92 199.24 777.55 164.89 759.83 185.22 721.92 287.04 694.58 468.25 667.24 662.06 655.66 770.65 637.54 780.99 593.09 735.6 506.6 667.72 385.2 640.38 247.15 613.04 141.71 631.43 91.6 640.99 61.9 594.82 69.29 464.06 96.63 270.25 123.96 89.04 166.08 9.38 231.6 24.88 317.54 95.06 445.15 175.79 583.2 203.13Q583.2 203.13 583.2 203.13" opacity="0.41"></path></g></svg>