<svg xmlns="http://www.w3.org/2000/svg" version="1.1" xmlns:xlink="http://www.w3.org/1999/xlink" xmlns:svgjs="http://svgjs.dev/svgjs" viewBox="0 0 800 800"><defs><linearGradient x1="50%" y1="0%" x2="50%" y2="100%" id="ssscribble-grad"><stop stop-color="hsl(37, 99%, 67%)" stop-opacity="1" offset="0%"></stop><stop stop-color="hsl(316, 73%, 52%)" stop-opacity="1" offset="100%"></stop></linearGradient></defs><g fill="none" stroke-width="4.5" stroke="url(#ssscribble-grad)" stroke-linecap="round"><path d="M1389.24 499.56C1310.24 523.48 1180.99 540.83 1032.36 551.74 849.43 564.55 840.49 557.08 1000.82 537.98 1130.64 524.31 1242.59 506.57 1315.97 486.63 1340.44 471.01 1310.36 456.92 1233.19 447.54 1120.54 448.03 991.3 458.26 864.3 481.47 752.74 519.22 671.39 572.73 625.96 642.56 617.81 724.49 643.04 818.2 693.06 919.06 763.07 1017.73 838.89 1110.48 910.8 1188.96 976.93 1244.69 1026.16 1273.19 1055.85 1269.65 1068.3 1235.53 1060.72 1171.94 1036.36 1085.19 997.55 989.53 947.95 893.71 892.07 811.9 829.09 759.74 765.45 744.14 704.16 771.07 641 839.63 582.9 942.2 531.06 1065.55 479.3 1190.97 434.29 1300.28 396.33 1375.06 358.55 1402.78 327.57 1377.37 303.65 1301.4 279.73 1189.26 263.43 1060.73 254.62 937.94 245.54 811.17 265.35 845.12 292 981.73 309.9 1092.37 331.05 1194.45 352.57 1273.51 367 1321.84 376.18 1331.02 375.71 1301.66 360.79 1237.95 330.24 1147.88 280.92 1042.49 214.36 930.07 129.54 823.26 29.18 730.62 -76.95 656.23 -185.61 605.67 -286.97 579.03 -368.35 575.76 -423.44 592.05 -443.53 622.63 -426.34 666.53 -371.63 715.13 -284.98 763.33 -182.89 812.67 -76.83 854.89 14.47 887.89 70.31 915.39 80.9 932.03 38.89 938.46 -52.01 938.55 -179.54 930.07 -322.85 914.88 -454.4 895.37 -550.4 871.66 -589.86 845.58 -564.59 817.5 -477.71 789 -346.47 761.34 -202.57 733.19 -75.75 706.87 3.24 682.95 13.03 659.03 -46.35 638.07 -158.63 619.63 -299.93 600.69 -435.33 583.28 -535.5 566.25 -582.25 547.22 -564.58 526.62 -488.37 502.73 -368.46 474.52 -228.53 440.52 -93.99 398.98 15.07 351.1 81.15 294.04 98.19 227.26 66.49 154.99 -3.36 74.64 -95.94 -11.56 -199.53 -96.63 -293.49 -180.83 -364.85 -258.96 -408.43 -323.77 -416.25 -372.91 -390.05 -401.01 -333.4 -405.73 -253.43 -385.03 -159.51 -338.9 -55.79 -274.51 46.22 -194.33 140.07 -106.81 225.72 -26.33 296.18 40.56 351.06 82.94 392.66 90.97 420.43 62.31 437.48 -3.54 444.72 -100.13 446.09 -217.77 444.97 -341.92 436.83 -497.74 432.57 -559.42 443.52 -440.93 452.72 -322.88 469.04 -196.78 492.96 -84.63 516.88 -8.64 547.83 19.21 585.22 -3.76 622.34 -73.79 665.3 -176.06 712.92 -292.24 759 -406.37 807.83 -497.52 857.11 -552.6 901.64 -566.04 942.75 -534.88 976.97 -465.18 1001.38 -365.85 1014.04 -250.54 1011.73 -133.54 996.13 -25.45 963.8 61.32 915.02 120.35 858.05 148.8 791.63 146.95 722.14 119.46 662.44 69.23 615.3 6.33 590 -60.98 595.14 -130.48 632.81 -191.35 704.62 -239.06 804.22 -274.66 924.82 -292.56 1053.31 -293.45 1170.81 -279.8 1263.86 -251.89 1316.91 -213.11 1321.21 -164.45 1274.64 -109.94 1183.12 -52.86 1066.11 8.53 941.75 68.75 835.33 125.82 772.61 183.85 766.35 237.11 822.31 284.83 931.7 332.38 1074.13 374.19 1220.16 410.02 1337.19 445.71 1399.02 475.63 1389.26 499.55Q1389.24 499.56 1389.24 499.56" opacity="0.81"></path><path d="M1339.74 239.42C1268.36 261.63 1152.01 278.36 1014.94 289.97 882.72 301.85 780.35 309.17 724.77 312.76 724.18 317.57 775.46 320.02 866.04 321.57 981.37 326.37 1097.68 332.67 1195.33 342.56 1262.16 358.72 1285.58 381.49 1264.21 412.94 1201.99 453.25 1108.11 504.19 996.04 566.42 876.42 636.58 764.8 716.14 671.54 802.77 601.75 889.74 561.05 976.35 548.53 1057.17 562.86 1124.87 597.79 1176.6 646.09 1206.96 706.02 1213.35 766.78 1193.86 822.63 1148.57 874.99 1084.03 915.42 1003.1 942.68 913.94 960.32 830.04 964.67 758.07 957.67 708.49 942.21 691.03 918.66 708.35 889.79 761.61 856.05 846.16 820.32 953.59 784.81 1071.37 747.36 1183.67 712.22 1276.37 680.73 1335.6 648.8 1352.78 621.42 1323.97 599.21 1251.9 577 1148.58 560.48 1029.8 549.14 913.38 533.62 781.47 516.34 757.67 507.08 860.36 495.65 957.13 479.75 1056.98 456.72 1147.03 425.22 1219.68 383.33 1263.92 329.22 1276.16 265.49 1256.91 189.65 1207.83 103.06 1135.25 12.98 1044.63 -80.84 945.41 -172.55 845.9 -252.63 750.3 -318.06 666.87 -361.5 599.31 -378.09 548.33 -365.12 515.99 -321.55 500.67 -254.53 501.62 -167.64 515.09 -71.15 537.16 17.78 568.37 90.14 602.11 132.55 635.13 134.1 670.3 92.58 700.85 9.47 725.33 -104.45 748.29 -235.22 764.08 -363.09 772.74 -466.2 779.22 -528.09 779.22 -536.07 773.48 -489.06 766.35 -393.23 754.6 -265.4 738.9 -132.73 722.8 -18.63 703.52 52.74 681.31 64.27 659.1 15.7 634.48 -80.99 607.32 -208.21 579.75 -338.18 548.87 -446.17 514.11 -515.33 477.97 -531.54 436.82 -494.01 390.05 -409.88 341.08 -293.75 285.84 -164.92 224.4 -40.36 161.43 61.15 93.34 128.11 21.69 154.82 -47.79 141.18 -116.94 93.92 -182.38 19.18 -238.69 -68.12 -285.22 -155.38 -317.96 -236.51 -334.44 -298.19 -332.6 -335.34 -310.74 -347.93 -272.29 -333.51 -216.59 -295.81 -147.22 -237.72 -73.94 -165.39 0.53 -85.21 68.03 1.91 117.49 87.62 145.05 168 144.5 245.33 112.45 313.38 50.12 371.67 -38.79 423.85 -145.12 466.96 -259.43 502.5 -368.74 533.23 -458.97 558.88 -519.57 581.28 -541.28 601.31 -521.49 620.33 -460.98 639.64 -367.01 658.35 -254.98 678.56 -138.46 700.77 -35.13 722.98 36.95 746.67 68.03 771.23 55.26 795.18 0.44 818.79 -85.71 840.66 -189.44 860.15 -298.64 875.65 -395.48 885.22 -467.5 889.99 -508.24 886.33 -511.11 872.65 -477.37 852.85 -411.51 822.34 -321.45 781.48 -217.74 737.58 -108.76 687.28 -6.3 634.38 81.35 568.79 171.89 524.95 197.72 574.68 147.13 640.93 95.42 730.34 39.31 837.69 -15.87 951.18 -70.71 1063.22 -117.22 1161.1 -153.15 1231.5 -181.14 1266.68 -196.67 1259.79 -200.51 1212.65 -195.5 1129.24 -180.73 1020.96 -158.39 908.41 -129.79 806.74 -96.64 735.14 -61.14 710.12 -22.39 736.93 16.3 814.64 53.38 931.19 91.68 1067.69 126.99 1199.31 158.38 1300.42 190.02 1351.27 217.2 1339.76 239.41Q1339.74 239.42 1339.74 239.42" opacity="0.18"></path><path d="M1290.24 92.96C1226.22 113.46 1122.49 132.87 997.8 151.47 871.98 170.47 765.63 189.42 694.19 209.12 666.97 230.32 685.77 253.68 744.56 280.33 835.05 310.03 940.17 344.68 1043.8 385.35 1134.87 430.28 1198.32 482.25 1227.37 541.49 1220.76 604.37 1178.88 673.48 1108.37 747.38 1015.61 820.75 911.73 894.7 806.89 965.81 706.62 1028.48 620.8 1081.73 553.86 1121.41 506.8 1144.42 481.51 1148.8 475.65 1132.62 488.14 1098.38 513.83 1045.71 547.82 977.78 590.53 903.35 634.03 825.34 674.74 751.45 715.73 692.36 749.79 652.15 775.78 637.27 798.38 652.26 812.41 696.84 818.52 768.94 821.26 861.97 817.48 967.98 808.41 1075.93 797.46 1173.17 782.88 1249.15 765.7 1293.81 747.99 1301.67 728.68 1270.32 708.18 1202.4 687.68 1107.8 666.46 998.92 644.23 889.82 621.48 792.99 596.71 719.8 568.99 677.44 539.39 669.77 505.19 695.44 465.25 749.22 421.94 826.02 371.49 914.11 313.36 1003.11 251.83 1086.73 183.13 1153.68 108.47 1198.23 34.1 1218.9 -42.08 1212.59 -116.38 1181.39 -181.97 1128.14 -238.18 1057.72 -280.01 976.25 -303.49 887.02 -306.35 797.62 -286.17 713.02 -246.1 634.34 -185.87 566.94 -109.82 512.21 -29.18 469.41 51.86 439.71 123.27 421.54 172.43 414.23 194.44 415.29 182.76 422.12 135.42 435.65 55.27 451.27 -50.83 466.77 -169.48 485.13 -287.95 500.9 -390.02 512.82 -460.37 525.39 -488.96 533.05 -469.66 535.29 -406.14 537.47 -305.82 534.08 -184.06 524.98 -63.42 515.79 38.22 501.02 102.24 480.52 115.14 460.02 76.51 434.27 -5.05 403.52 -117.06 372.69 -238.03 336.73 -347.92 295.89 -432.31 254.98 -476.19 209.33 -474.61 159.56 -429.28 110.45 -346.89 58.27 -240.14 4.37 -121.31 -46.66 -6.61 -96.93 91.17 -144.12 164.01 -184.62 204.84 -218.37 213.12 -242.67 189.88 -256.1 141.89 -256.92 77.55 -243.47 1.12 -218.08 -75.11 -178.83 -143.57 -127.03 -202.8 -69.31 -244.37 -5.5 -266.67 59.51 -271.43 116.77 -257.35 164.37 -227.52 196.28 -183.72 206.13 -129.93 192.58 -70.26 153.64 -4.09 90.8 62.53 7.15 126.88 -91.48 192.21 -195.51 252.6 -296.95 307.06 -385.33 360.36 -450.69 407.44 -486.16 448.43 -486.42 488.32 -451.99 522.85 -384.84 552.37 -292.08 581.53 -187.04 606.35 -80.23 626.86 14.36 647.36 82.29 663.06 115.74 673.84 111.95 684.26 71.36 689.08 1.42 687.87 -87.89 685.55 -187.92 676.45 -284.14 660.35 -365.62 643.09 -426.16 619.13 -457.39 589.33 -457.37 560.51 -427.47 528.53 -370.55 496.02 -293.18 470.01 -201.01 448.9 -103.12 436.7 -7.34 438.46 81.93 454.89 157.43 488.98 215.89 540.61 256.29 610.33 277.51 696.43 281.38 791.76 268.57 893.59 243.48 994.24 210.16 1082.79 168.38 1153.62 124.95 1198.21 83.19 1211.3 40.89 1190.35 4.46 1135.81 -24.75 1056.31 -50.33 958.32 -67.65 854.53 -77.05 728.27 -81.31 696.77 -55.07 815.89 -30.29 933.69 -11.33 1060.69 9.06 1176.77 30 1262.41 51.33 1303.14 72.45 1290.26 92.95Q1290.24 92.96 1290.24 92.96" opacity="0.74"></path><path d="M1240.74 163.86C1183.79 182.65 1092.35 204.64 980.57 229.79 863.43 255.19 757.31 284.2 675.51 317.06 627.08 350.69 616.71 388.78 643.03 431.49 702.54 475.33 784.58 524.04 877.53 577.33 973.13 631.13 1057.24 688.64 1121.14 748.69 1161.2 806.82 1171.79 864.93 1153.66 920.76 1109.33 970.23 1043.42 1013.44 962.76 1047.55 871.44 1070.29 778.24 1080.25 689.32 1075.53 606.4 1057.29 535.93 1024.07 479.73 976.7 437.14 920.65 409.49 856.07 394.95 787.3 392.7 722.65 399.75 664.2 412.99 617.83 433.44 590.47 455.73 583.92 477.41 601.14 501.74 642.73 522.71 706.74 539.03 789.42 555.61 883.69 566.59 982.78 571.57 1077.62 575.58 1188.47 553.81 1232.94 528.5 1152.9 509.7 1066.93 485.6 968.02 456.37 867.05 426.98 773.71 392.19 697.38 352.1 644.61 311.67 619.55 265.88 622.97 215.19 652.55 164.78 705.89 110.43 775.18 53.53 852.88 -0.71 934.53 -54.77 1010.17 -106.07 1073.69 -150.18 1123.02 -187.18 1152.36 -213.91 1160.76 -228.33 1149.3 -228.66 1118.46 -212.96 1071.53 -183.65 1010.68 -138.98 940.65 -80.71 865.83 -16.41 787.24 53.31 710.55 122.44 638.63 180.9 570.78 225.89 511.07 250.65 460.12 249.21 416.35 220.41 381.33 163.58 354.05 82.92 333.37 -16.5 318.56 -125.87 308 -232.6 301.87 -326.88 297.81 -397 294.33 -433.92 293.16 -432.53 290.9 -391.36 286.49 -316.81 282.99 -216.21 276.37 -102.79 266.01 5.26 255.84 94.79 241.52 151.74 222.73 165.64 203.93 136.04 181.11 68.91 154.67 -27.26 128.43 -136.35 98.98 -242.82 67.04 -335.13 36 -399.08 3.44 -427.69 -29.48 -419.42 -60.1 -375 -89.42 -301.18 -115.87 -205.52 -137.89 -99.55 -154.84 5.68 -165.02 102.61 -168.6 181.47 -163.55 237.35 -148.75 268.18 -126.77 273.44 -95.04 256.27 -54.08 218.42 -9.05 167.1 41.81 108.6 95.77 44.21 145.96 -16.99 192.53 -70.72 231.2 -118.1 255.94 -152.85 265.86 -174.37 257.75 -185.16 229.79 -183.18 182.24 -170.33 116.16 -148.41 35.88 -118.82 -55.07 -84.15 -150.5 -44.1 -241.97 -2.17 -323.51 39.56 -387.46 83.64 -427.66 125.49 -440.06 163.88 -422.26 202.97 -376.76 237.69 -305.97 267.37 -216.36 297.16 -119.11 321.65 -22.11 340.45 63.86 365.57 144.88 386.33 111.6 383.37 10.78 380.43 -76.8 373.39 -166.91 363.41 -250.58 351.49 -348.55 338.72 -394.79 348.74 -339.74 366.75 -276.61 394.72 -199.95 434.47 -115.73 484.95 -27.39 547.67 58.11 621.94 136.35 702.56 205.92 789.58 262.6 878.6 305.48 961.74 334.85 1036.52 350.69 1096.58 354.86 1135.95 347.64 1151.62 332.41 1140.37 311.91 1104.07 285.05 1043.43 256.9 963.27 229.64 874.8 200.45 784.14 174.69 702.26 153.47 642.2 132.74 610.01 117.42 612.33 107.67 651.54 99.05 724.44 95.79 824 97.59 937.71 100.18 1052.34 107.24 1152.24 118.45 1223.11 129.9 1254.63 145.06 1240.76 163.85Q1240.74 163.86 1240.74 163.86" opacity="0.37"></path><path d="M1191.24 401.93C1141.07 419.01 1061.49 440.62 962.93 466.47 856.31 492.31 754.2 522.36 667.46 556.24 570.33 623.39 595.03 703.61 714.99 790.31 884.92 867.51 1030.4 937.64 1105.1 986.72 1096.72 1005.85 1007.79 986.72 871.55 923.51 710.35 833.87 562.52 721.34 446.82 611.68 361.11 543.69 311.9 533.52 287.43 599.02 282.79 732.35 283.78 906.84 278.95 1074.9 275.98 1161.46 251.71 1179.23 228.46 1103.4 211.37 1025.94 189.93 937.02 164.55 844.86 139.4 756.73 110.76 680.1 79.43 620.61 19.81 567.36 -43.34 604.41 -97.92 708.19 -132.67 850.99 -139.74 982.1 -106.69 1068.65 -43.66 1101.07 55.11 1069.42 171.51 989.09 262.97 872.34 311.38 742.98 284.18 620 173.9 502.52 -2.22 407.03 -197.2 333.67 -342.2 272.76 -386.35 226.95 -302.41 189.76 -222.27 172.72 -125.19 156.32 -21.95 140.01 73.23 123.98 151.07 107.51 201.24 90.42 215.75 73.34 194.21 56.04 140.62 38.79 60.4 21.81 -34.72 5.43 -133.22 -9.75 -304.35 -37.01 -377.27 -53.37 -331.76 -51.69 -188.61 -37.56 -0.58 1.64 171.87 66.46 292.93 136.76 337.21 217.07 314.99 289.04 238.36 324.59 143.25 315.73 57.34 247.75 -19.96 125.62 -63.81 -36.12 -75.89 -203.97 -69.57 -332.8 -42.86 -389.32 -6.66 -349.28 13.53 -296.4 33.96 -224.8 53.75 -140.06 73.9 -51.28 92.72 35.89 109.8 113.36 134.37 190.07 174.65 182.49 192.86 105.04 221.09 -49.82 256.55 -204.86 309.44 -313.15 380.73 -353.62 480.86 -312.81 610.83 -209.26 749.41 -64.02 893.58 89.02 1015 223.45 1082.03 331.45 1078.28 399.65 992.82 433.2 855.94 436.79 698.56 422.94 580.45 404.97 559.96 377.49 652.31 359.43 836.61 356.73 941.7 355.06 1041.87 357.81 1125.47 365.25 1182.46 372.67 1205.75 384.83 1191.26 401.92Q1191.24 401.93 1191.24 401.93" opacity="0.97"></path><path d="M1141.74 638.63C1029.69 669.38 848.93 709.95 668.41 756.94 545.06 801.04 514.87 845.67 573.95 883.36 701.29 908.97 846.14 916.69 965.01 898.78 1039 861.29 1045.87 796.03 994.37 708.09 896.27 621.01 774.26 538.43 650.82 481.98 527.2 474.51 423.78 521.69 343.35 626.01 275.04 769.92 224.51 929.32 185.51 1066.38 150.96 1145.19 119.84 1142.89 89.08 1053.9 58.33 905.69 29.39 741 5.94 604.69 -13.05 527.09 -18.47 521.99 -3.46 580.22 23.66 687.87 76.44 809.7 152.66 916.85 228.69 998.88 306.55 1034.58 364.34 1025.02 375.53 977.1 332.2 899.64 226.19 808.07 75.29 704.04 -97.13 604.33 -247.02 516.51 -328.64 430.9 -315.96 360.14 -204.47 304.2 -35.83 250.26 138.69 208.04 250.74 177.28 249.86 146.52 143.24 128.69 -21.61 124.62 -191.51 122.55 -301.01 137.36 -320.28 169.66 -250.15 204.19 -112.81 253.25 49.74 309.88 207.91 354.05 325.83 387.37 391.82 394.99 406.64 364.25 380.36 292.1 332.68 178.05 265.76 38.88 204.91 -110.52 160.52 -240.73 119.62 -321.51 99.82 -333.94 99.63 -268.22 102.52 -143.79 120.2 14.64 150.95 162.86 181.7 251.88 224.07 260.44 279.18 193.51 337.37 68.32 413.12 -73.57 507.32 -194.94 605 -276.72 716.49 -296.33 830.82 -256.85 925.91 -168.39 996.35 -49.35 1021.86 78.03 996.18 206.28 914.74 315.7 788.6 400.59 658.06 465.91 548.29 508.84 500.69 536.54 542.48 552.15 669.47 563.47 851.23 577.38 1027.96 588.38 1140.85 607.87 1141.76 638.62Q1141.74 638.63 1141.74 638.63" opacity="0.54"></path><path d="M1092.24 706.39C997.2 733.73 842.43 757.47 676.3 775.65 540.36 791.3 468.38 796.8 469.02 788.31 537.47 772.6 646.37 738.88 764.16 686.85 875.44 630.75 950.14 563.67 980.61 495.2 971.34 444.84 924.24 414.89 853.67 418.73 763.64 464.39 670.52 551.54 584.62 673.87 497.45 811.7 424.1 946.52 366.54 1050.84 310.3 1102.3 268.25 1087.4 240.92 1004.4 213.58 874.36 202.24 727.32 206.93 595.85 212.93 503.01 236.54 463.94 276.33 478.32 314.86 541.48 362.96 632.7 410.85 730.98 439.29 828.92 447.14 903.53 420.58 947.68 354.28 965.6 247.17 952.82 107.42 917.18 -38.83 863.19 -172.24 799.16 -260.73 733.85 -281.41 663.01 -224.98 598.63 -99.6 545.03 55.97 490.88 205.2 449.14 300.24 421.8 305.43 394.46 224.91 382.8 89.38 385.4 -67.06 387.44 -194.12 402.08 -261.52 425.55 -260.93 443.48 -192.47 462.5 -78.32 474.36 63.12 467.87 202.05 441.41 318.64 387.67 408.97 307.69 463.41 200.67 487.74 74.27 486.17 -52.47 469.81 -168.21 450.14 -251.42 421.97 -285.85 402.05 -262.36 395.86 -180.08 388.79 -59.17 398.01 82.32 425.34 212.36 452.68 295.39 496.83 315.84 555.46 274.94 613.21 181.18 682.85 61.92 758.41 -55.86 825.46 -158.17 886.84 -220.81 930.55 -238 948.36 -213.38 933.19 -151.02 878.7 -64.83 797.94 39.46 691.43 145.79 578.44 244.02 492.75 338.19 448.79 416.93 468.23 480.02 555.65 535.89 698.25 580.12 865.25 616.03 1011.34 649.4 1097.42 679.04 1092.26 706.38Q1092.24 706.39 1092.24 706.39" opacity="0.29"></path><path d="M1042.74 557.25C963.74 581.17 835.01 592.97 688.81 592.83 553.15 591.87 455.53 577.81 409.26 551.15 417.63 524.11 471.19 486.48 552.19 442.42 652.1 405.55 745.78 371.85 819.86 349.83 876.2 350 902.74 373.99 902.84 427.05 883.07 507.11 846.34 611.91 801.32 732.04 747.8 850.49 695.37 954.98 649.75 1027.26 602.54 1055.06 565.67 1030.87 541.75 954.9 517.83 842.76 507.99 714.56 510.09 592.88 515.05 462.51 533.81 451.84 515.38 544.5 478.41 627.24 417.53 706.39 329.84 772.54 224.41 829.1 102.36 864.47 -22.44 879.44 -128.36 880.84 -203.37 866.59 -229.27 842.16 -200.53 810.48 -116.53 775.36 9.89 741.45 146.86 705.75 270.74 674.81 349.74 650.89 359.53 626.96 302.45 611.19 197.18 601.78 63.46 590.58 -63.16 582.18 -157.47 572.41 -209.79 555.39 -208.29 530.25 -159.83 491.99 -73.25 440.15 35.2 370.45 148.32 282.54 262.12 185.04 360.32 77.53 438.27 -30.12 501.32 -122.97 545.28 -193.86 575.2 -229.68 595.22 -224.91 609.6 -175.85 623.84 -86.07 635.47 26.36 652.07 149.71 675.99 261.86 699.91 337.85 730.01 366.91 763.49 348.35 794.37 285.31 823.51 194.44 844.95 93.52 856.49 -9.07 851.93 -92.43 825.76 -147.58 784.68 -175.74 720.83 -171.37 638.38 -140.19 556.61 -86.82 476.51 -18.77 414.83 54.95 391.27 135.87 411.2 212.9 481.04 281.4 592.87 349.52 733.11 407.09 876.07 453.16 990.58 498.41 1052.52 533.32 1042.76 557.24Q1042.74 557.25 1042.74 557.25" opacity="0.88"></path><path d="M993.24 296.78C929.22 317.28 825.86 326.68 703.4 326.21 579.04 326.39 472.58 318.16 396.81 304.11 357.04 293.74 354.42 281.89 382.2 273.12 437.19 274.59 504.78 286.09 573.62 312.32 645.19 355.02 704.4 416.18 747.48 495.55 781.99 586.42 799.73 687.1 803.36 788.76 800.24 879.33 788.07 951.68 770.65 994.89 751.2 1003.47 730.31 973.32 709.81 905.4 689.31 810.8 670.16 702.21 650.94 594.39 629.69 497.57 604.56 422.52 572.15 374.51 532.99 355.33 481.48 362.82 415.38 391.02 340.69 438.72 252.04 494.56 153.61 550.8 57.89 610.3 -34 661.03 -110.34 699.84 -159.47 733.97 -175.24 755 -150.5 763.99 -89.76 768.67 5.02 764.22 121.47 752.83 236.01 740.03 335.22 722.86 399.24 702.36 412.14 681.86 375.32 658.99 299.34 633.12 194.12 605.85 82.62 573 -17.06 532.79 -98.11 488.28 -145.25 433.48 -156.68 367.75 -136.11 297.34 -86.8 217.18 -18.73 130.8 64.93 47.7 152.25 -32.45 235.3 -101.5 318.28 -151.07 390.55 -176.95 450.43 -172.81 506.42 -139.84 551.48 -76.47 586.89 12.42 620.68 112.32 647.62 216.76 668.12 311.36 695.18 396.46 706 347.34 681.67 241.46 657.32 154.82 618.82 72.53 567.44 3 516 -55.01 458.1 -91.87 401.3 -107.69 360.1 -107.05 335.09 -89.11 335.86 -58.99 368.63 -18.61 434.16 26.99 530.22 72.9 644.93 122.47 768.1 168 881.24 206.49 965.14 245.63 1006.14 276.27 993.26 296.77Q993.24 296.78 993.24 296.78" opacity="0.88"></path><path d="M943.74 109.38C813.78 143.55 609.44 164.83 426.61 185.41 315.13 220.95 298.71 281.92 345.19 383.56 438.85 514.38 524.51 676.58 573.57 832.43 617.62 934.36 621.86 949.81 587.69 855.9 553.52 689.29 484.16 509.13 380.89 374.02 272.61 305.94 133.62 307.71 -4.82 350.71 -96.09 427.88 -115.92 496.52 -29.48 535.09 128.29 571.8 318.78 573.95 448.74 539.78 440.36 505.61 313.46 438.36 145.2 342.44 -13.59 244.64 -90.99 122.67 -83.75 0.7 -13.13 -87.08 92.54 -125.11 191.89 -82.09 298.5 27.95 374.94 194.25 409.11 360.86 443.3 454.8 431.99 453.22 384.6 376.34 344.47 245.54 292.11 119.58 266.27 33.54 303.8 -23.31 417.44 -30.95 601.27 -7.26 794.58 31.36 935.34 75.2 943.76 109.37Q943.74 109.38 943.74 109.38" opacity="0.79"></path><path d="M894.24 127.72C799.2 155.05 645.71 196.97 487.17 255.39 350.45 320.64 264.79 411.56 229.1 524.76 234.51 639.46 260.2 758.03 281.55 852.99 311.04 901.9 317.11 889.4 289.77 806.4 262.43 676.36 204.28 529.99 127.4 402.29 58.68 305.25 -9.67 251.05 -50.91 232.55 -51.05 244.17 5.61 266.9 122.29 282.67 260.79 304.42 403.2 305.57 498.24 278.24 503.43 250.9 428.58 197.66 311.58 128.52 173.03 65.38 63.49 0 2.17 -47.46 -25.05 -64.79 -11.04 -39.59 23.39 37.39 70.3 145.04 114.21 280.32 141.55 410.36 168.9 493.39 177.08 516.98 177.54 488.12 190.47 413.2 219.12 323.62 282.17 244.75 379.31 167.37 517.84 119.11 676.43 101.24 813.48 90.2 899.42 100.37 894.26 127.71Q894.24 127.72 894.24 127.72" opacity="0.61"></path><path d="M844.74 338.81C780.72 359.31 678.06 401.22 562.27 459.88 443.16 518.52 340.99 592.14 265.02 671.53 206.98 741.71 170.35 803.82 147.04 842.93 131.03 852.55 115.59 824.82 95.09 756.9 74.58 662.3 50.96 554.27 31.44 450.95 19.21 355.9 23.84 280.3 55.01 226.73 104.1 188.55 184.53 164.77 288.61 148.21 389.37 137.02 483.72 123.4 547.74 102.9 560.64 82.39 527.4 56.95 463.61 32.6 373.75 13.63 285.06 5.42 214.16 16.72 149.29 43.41 110.39 97.27 96.2 177.29 87.79 265.58 95.55 365.3 116.06 459.9 136.55 527.81 167.85 563.86 211.79 569.27 261.5 545.18 332.4 504.82 424.14 461.51 521.91 409 632.35 367.37 737.24 344.27 816.07 321.14 857.64 318.3 844.76 338.8Q844.74 338.81 844.74 338.81" opacity="0.87"></path><path d="M795.24 593.22C700.21 620.55 549.26 688.74 418.27 757.45 294.13 797.98 213.32 790.4 185.99 707.4 158.65 577.36 189.95 432.39 278.27 322.59 373.42 227.24 502.21 165.22 597.24 137.88 602.43 110.54 538.83 123.06 465.66 182.58 374.55 256.55 329.16 379.36 356.5 509.4 383.83 592.4 478.73 622.15 605.66 617.44 714.67 584.57 800.43 565.88 795.24 593.22Q795.24 593.22 795.24 593.22" opacity="0.14"></path></g></svg>