<svg xmlns="http://www.w3.org/2000/svg" version="1.1" xmlns:xlink="http://www.w3.org/1999/xlink" xmlns:svgjs="http://svgjs.dev/svgjs" viewBox="0 0 800 800" opacity="0.81"><defs><linearGradient x1="50%" y1="0%" x2="50%" y2="100%" id="ssscribble-grad"><stop stop-color="hsl(206, 75%, 49%)" stop-opacity="1" offset="0%"></stop><stop stop-color="hsl(331, 90%, 56%)" stop-opacity="1" offset="100%"></stop></linearGradient></defs><g fill="none" stroke-width="1.5" stroke="url(#ssscribble-grad)" stroke-linecap="round"><path d="M853.55 572.1C700.83 604.96 646.29 645.12 710.18 689.88 855.26 732.39 995.28 774.93 1060.97 811.61 1028.31 838.89 910.67 851.81 760.25 844.39 621.98 822.09 538.39 778.43 517.14 717.99 552.33 659.99 616.74 607.53 682.45 577.49 745.49 586.86 781.28 638.3 789.29 730.72 780.64 847.78 753.56 967.62 718.1 1059.66 677.58 1099.59 638.54 1073.29 605.68 984.12 572.82 862.27 547.7 743.69 526.24 661.07 499.73 633.78 467.03 662.07 418.73 730.21 353.78 823.11 263.87 909.21 150.19 968.6 33.83 996.43 -77.75 983.17 -156.01 936.23 -177.83 862.99 -133.2 775.6 -29.15 686.48 87.04 595.67 175.22 515.02 183.79 447.16 94.01 385.04 -64.7 333.87 -222.47 291.19 -299.03 250.87 -251.16 214.86 -98.44 182 67.33 149.14 152.6 120.98 119.17 99.32 -10.71 80.04 -158.04 71.42 -247.67 76.59 -244.83 87.5 -148.94 114.03 -5.07 154.19 142.44 192.66 246.09 232.89 289.99 263.06 275.62 266.94 223.96 241.25 162.41 179.2 96.18 85.61 52.12 -29.95 34.27 -146.94 31.16 -239.18 48.37 -286.18 77.07 -271.58 110.92 -201.66 146.56 -89.75 179.42 32.09 212.28 121.27 240.81 154.25 268.92 127.01 302.2 47.67 344.76 -53.46 404.82 -146.44 479.61 -214.78 577.78 -236.76 694.65 -211.91 806.85 -147.66 905.7 -56.25 963.15 44.81 962.33 148.32 897.66 239.16 784.36 312.11 674.7 370.18 608.26 411.38 629.49 441.05 743.19 461.32 909.21 478.56 1051.81 498.01 1097.94 515.23 1019.36 539.23 853.61 572.09Q853.55 572.1 853.55 572.1" opacity="0.39"></path><path d="M819.55 624.96C675.17 655.47 612.05 686.54 652.18 716.03 773.91 743.26 911.87 764.66 1004.58 775.97 1021.64 779.97 954.45 768.9 833.65 740.78 692.35 705.92 572.71 658.49 496.6 605.81 468.53 565.27 482.42 539.08 519.07 539.59 573.83 575.68 622.21 646.57 654.34 746.52 680.67 858.47 687.49 964.09 678.13 1038.83 665.06 1065.59 641.92 1034.66 611.41 950.12 580.89 837.29 544.45 725 499.98 640.38 451.79 600.68 389.46 609.42 310.25 657.23 225.24 734.67 126.61 816.75 24.83 885.25 -58.85 935.13 -116.54 952.44 -128.46 938.65 -92.35 899.13 -8.88 839.2 100.63 769.16 189.66 690.34 229.48 613.56 190.05 544.17 74.97 475.78 -80.34 417.11 -213.85 368.57 -265.75 321.22 -208.82 282.22 -64.44 251.71 91.27 221.19 181.9 200.61 171.27 190.4 68.45 181.39 -69.35 184.56 -178.65 200.07 -222.25 216.57 -180.22 243.1 -75 274.9 63.33 297.91 192.44 314.04 285.38 313.57 334.31 287.38 338.86 233.9 315.29 152.24 268.77 51.97 222.67 -57.46 188.89 -157.27 157.87 -227.46 145.5 -253.57 150.28 -225.66 158.21 -152.83 178.46 -46.73 208.97 66.09 239.48 150.65 278.82 187.78 328.42 172.8 381.18 109.84 449.06 21.6 532.96 -67.97 619.61 -145.57 715.96 -189.1 809.52 -193.42 880.12 -162.17 919.39 -99.81 910.47 -19.28 857.53 73.39 764.6 164.62 658.03 246.52 584.58 321.66 569.9 382.99 635.85 431.87 767.5 473.45 922.68 507.56 1037.29 537.87 1059.72 565.93 975.31 594.44 819.61 624.95Q819.55 624.96 819.55 624.96" opacity="0.39"></path><path d="M785.55 605.16C650.03 633.32 580.57 655.88 598.99 671.76 695.04 686.02 821.87 690.8 928.77 684.18 985.49 673.73 969.76 650.63 893.52 616.2 776.73 582.51 651.81 544.87 544.9 511.12 465.28 494.59 423.09 496.69 411.27 525.04 425.61 581.94 451.2 664.78 475.69 765.36 505.18 867.72 522.79 957.32 525.35 1015.23 527.19 1030.2 514.16 995.74 485.99 916.12 457.82 812.32 415.86 707.01 360.9 622.28 305.22 572.91 236.37 564.28 158.07 591.78 84.76 650.34 12.79 721.4 -44.96 789.7 -76.55 851.11 -74.79 890.12 -32.09 904.04 37.9 897.03 129.42 868.18 216.88 824.5 263.8 768.76 254.27 708.16 176.9 648.85 49.36 586.8 -93.5 530.78 -200.42 483.34 -229.71 435.9 -165.96 397.48 -30.44 369.31 122.35 324.21 -174.44 348.81 -123.07 368.26 -19.12 368.53 103.77 356.95 217.68 327.05 311.41 276.22 370.28 203.82 397.69 113.08 397.85 15.46 382.55 -80.86 364.24 -160.07 338.54 -208.22 322.06 -215.63 319.34 -177.14 316.59 -103.3 328.85 -3.7 357.01 100.09 385.18 179.72 427.91 219.91 483.77 215.82 539.61 168.78 607.33 95.22 681.85 13.5 748.97 -66.43 810.66 -124.02 853.92 -151.59 869.93 -150.62 851.51 -119.32 794.71 -65.88 717.72 4.78 628.21 82.86 553.57 159.96 527.19 237.8 561.1 307.28 659.07 366.54 795.4 421.98 931.7 468.44 1017.35 507.29 1018.83 544.54 930.84 576.98 785.61 605.15Q785.55 605.16 785.55 605.16" opacity="0.08"></path><path d="M751.55 519.08C588.6 553.17 675.05 573.36 837.9 557.85 920.6 543.86 949.23 521.58 922.14 494.28 848.35 472.91 746.38 454.39 638.98 445.46 535.67 454.42 454.08 482.26 397.54 532.44 362.5 602.64 346.65 689.72 341.17 784.74 346.02 874.05 349.94 946.71 346.84 988.73 345.54 993.42 333.05 956.52 307.23 882.12 281.41 787.35 243.48 689.63 196.09 606.58 150.5 550.36 99.61 527.12 50.02 535.54 10.75 573.66 -15.91 628.71 -20.66 688.85 -3.92 751.38 40.59 801.47 110.07 834.14 183.62 852.94 254.98 852.32 301.89 835.84 302.09 807.65 250.31 770.16 148.68 728.73 21.2 682.59 -102.08 637.79 -181.67 597.76 -190.93 556.86 -122.61 522.64 3.55 496.82 185.24 462.9 163.04 437.25 4.61 437.56 -91.24 434.26 -140 429.22 -133.96 417.63 -78.61 394.31 12.1 357.87 116.13 305.23 223.28 238.73 314.03 158.03 382.11 68.62 430.78 -18.4 458.96 -96.6 474.24 -153.66 478.41 -181.02 480.67 -172.48 487.45 -126.23 491.93 -53.16 505.89 39.31 531.7 134.09 557.52 208.49 593.98 250.64 638.18 255.93 680.1 223.88 724.82 165.92 765.39 95.53 794.86 19.43 809.21 -44.49 800.34 -87.8 772.06 -111.1 718.38 -108.33 645.08 -83.45 574.88 -40.69 514.77 14.9 486.3 76.06 507.12 143.15 579.02 207.96 693.8 266.69 822.66 325.1 934.35 375.76 991.63 417.9 975.32 459.36 885.99 493.26 751.61 519.07Q751.55 519.08 751.55 519.08" opacity="1.00"></path><path d="M717.55 394.55C563.48 424.91 595.78 439.9 737.83 428.14 861.42 414.64 853.09 397.51 741.19 415.66 646.28 446.87 554.76 494.26 475.63 558.13 406.11 633.55 353.54 717.68 315.2 802.1 285.94 876.07 264.17 931.74 245.01 959.23 228.45 955.26 209.48 917 186.01 848.12 162.54 762.35 135.68 672.75 107.97 593.03 72.4 515.45 55.14 525.88 95.43 590.18 138.39 644.9 196.21 695.56 260.36 736.44 311.13 770.83 344.03 790.6 344.2 796.39 303.06 793.37 222.11 779.45 111.27 758.18 -5.2 732.12 -104.12 703.1 -157.2 674.2 -149.48 644.1 -78.79 616.53 37.55 593.06 160.74 569.59 254.05 551.32 293.73 537.16 271.86 521.78 201.33 508.11 107.01 493.49 8.02 474.08 -65.42 449.36 -99.76 416.21 -94.32 374.24 -49.73 320.78 20.76 255.63 109.66 183.98 200.78 105.5 283.56 26.33 360.14 -44.26 421.11 -101.59 467.51 -136.77 505.56 -145.65 534.41 -124.34 558.41 -73.17 579.77 -2.51 601.22 82.32 624.69 168.09 648.16 236.98 672.54 280.01 695.45 293.04 715.73 274.62 729.58 232.32 732.21 175.55 726.49 108.33 704.18 45.25 663.78 -5.72 617.18 -45.16 559.76 -64.72 501.61 -65.16 461.88 -50.41 445.1 -21 464.09 17.88 522.86 64.97 617.36 114.92 733.55 163.45 845.08 214.2 928.97 260.27 959.92 299.55 929.32 339.01 840.78 371.07 717.61 394.54Q717.55 394.55 717.55 394.55" opacity="0.26"></path><path d="M683.55 271.77C539.86 299.85 523.53 324.56 635.35 327.13 725.76 331.23 800.89 336.09 848.44 344.89 867.11 361.53 852.28 386.62 811.26 422.68 749.25 469.35 676.73 527.88 603.38 596.56 527.83 669.57 460.71 744.78 404.54 815.02 352.26 872.55 310.07 911.98 276.55 926.68 244.77 915.76 218.65 877.21 197.53 814.12 176.41 737.32 161.27 656.28 153.21 581.36 146.9 519.82 150.65 477.14 166.33 455.21 185.89 454.94 218.22 472 261.21 500.96 302 541.48 344.19 583.93 378.51 623.02 391.85 661.74 381.62 691.42 340.96 710.72 271.41 725.19 177.34 729.58 71.45 725.44 -61.86 710.97 -69.99 658.21 71.55 626.94 183.22 605.81 273.24 584.85 322.62 563.48 322.89 541.02 279.41 516.14 207.41 487.23 118.71 454.77 37.48 415.59 -21.69 368.57 -55.96 316.7 -57.21 256.7 -30.35 190.29 19.53 123.51 83.95 56.02 153.03 -6.49 227.28 -57.46 295.74 -93.47 354.64 -108.68 411.05 -102.25 457.29 -71.6 493.96 -18.21 529.16 48.53 557.17 125.28 578.29 202.09 606.04 286.61 616.58 306.87 592.88 251.12 570.59 196.37 536.93 140.1 495.23 89.09 441.66 25.66 416.37 -15.81 485.76 2.72 566.93 26.47 667.11 56.4 771.3 88.91 858.78 124.71 914.3 159.61 922.19 191.1 880.99 223.3 795.26 250.64 683.61 271.76Q683.55 271.77 683.55 271.77" opacity="0.54"></path><path d="M649.55 190.41C554.1 209.19 481.24 224.82 442.61 237.99 443.19 251.98 478.4 265.1 537.48 278.99 613.33 295.95 687.91 316.45 749.62 342.39 796.76 374.07 819.6 413.54 819.2 461.4 799.45 514.94 763.08 575.63 717.11 640.86 662.24 705.17 606.5 767.16 554.72 821.26 501.63 862.45 455.69 887.13 418.54 891.08 381.66 874.95 353.42 837.15 334.64 780.12 315.86 712.23 307.44 640.09 308.91 571.29 310.64 510.99 322.42 463.8 342.97 432.01 362.2 416.74 387.02 416.25 412.95 427.47 429.98 450.55 439.39 478.96 434.53 508.52 410.32 541.71 365.22 570.88 298.53 593.78 217.26 615.54 125.84 629.61 36.23 635.88 -59.55 639.2 -24.42 613.35 105.55 587.51 205.42 568.74 290.28 546.18 345.6 519.91 363.77 492.99 345.52 461.18 299 424.14 230.3 385.33 156.53 340.34 90.17 289.64 33.7 237.8 -1.07 181.68 -13.26 123.87 -6.61 69.7 18.4 19.02 55.44 -23.61 102.86 -54.38 153.67 -70.74 202.6 -69.24 253.98 -51.21 299.42 -14.72 336.64 38.31 373.92 99.87 402.51 168.2 421.29 236.09 441.48 334.18 388.04 257.11 359.61 189.77 351.51 144.09 353.44 105.66 371.4 76.73 408.19 53.48 465.23 40.97 541.24 38.22 627.16 41.22 717.76 51.65 800.23 67.23 860.52 85.88 889.47 106.92 878.56 128.35 830.51 150.59 749.47 171.62 649.61 190.4Q649.55 190.41 649.55 190.41" opacity="0.21"></path><path d="M615.55 176.74C462.83 209.6 404.69 246.96 450.73 293.32 571.32 347.95 688.89 423.82 754.81 521.57 772.75 625.48 736.5 733.99 678.96 818.95 606.2 858.32 545.15 835.29 512.29 746.12 479.43 624.27 477.87 504.83 493.67 419.76 494.27 380.27 479.24 382.57 418.22 407.73 309.23 454.06 156.81 492.74 12.14 510.51 -57.98 527.54 -13.16 520.38 139.55 487.52 305.33 454.67 393.37 399.22 375.86 325.25 272.04 250.53 153.2 160.56 74.27 71.16 35.82 2.92 53.59 -34.23 99.16 -18.83 161.72 42.13 218.21 148.24 251.07 270.09 283.94 359.27 290.07 395.63 284.45 380.36 295.83 319.48 329.33 245.83 410.83 184.99 532.83 130.31 686.53 105.72 814.45 108.03 856.05 118.62 781.36 143.87 615.61 176.73Q615.55 176.74 615.55 176.74" opacity="0.57"></path><path d="M581.55 235.19C446.03 263.35 374.27 306.04 380.58 362.54 454.97 422.61 551.9 500.27 630.94 589.39 693.51 674.13 714.3 753.41 704.24 806.65 680.67 823 648.45 791.74 620.28 712.12 592.12 608.32 570.67 502.47 545.43 417.51 506.67 361.3 441.93 336.18 342.45 333.24 226.49 350.79 99.68 370.6 4.64 380.22 -22.3 392.87 38.03 387.42 173.55 359.26 318.8 331.09 414.13 282.87 433.51 221.41 380.19 162.98 292.47 99.2 212 44.74 139.84 10.76 106.52 6.01 106.27 41.56 118.91 105.87 145.06 200.29 173.22 304.09 201.39 383.72 228.91 426.41 265.08 430.71 314.13 398.12 391.4 348.72 500.47 300.9 617.86 248.69 735.46 214.98 809.44 203.72 810.72 196.03 726.84 207.01 581.61 235.18Q581.55 235.19 581.55 235.19" opacity="0.90"></path><path d="M547.55 346.87C431.2 370.34 354.48 410.65 330.85 463.94 359.14 517.28 417.55 582.02 479.44 649.82 546.73 708.86 591.75 757.82 610.12 783.38 622.47 782.26 615.1 747 591.63 678.12 568.15 592.35 530.81 502.42 477.78 423.8 418.73 360.81 337.08 318.1 239.03 293.3 104.72 282.57 57.6 272.41 207.55 244.15 330.74 220.68 424.81 185.53 469.35 144.9 461.91 108.29 418.26 74.19 363.67 52.89 297.95 46.92 249.85 64.73 227.2 110.51 209.01 171.92 212.57 252.32 236.04 338.09 259.51 406.98 300.66 451.77 359.52 470.1 422.85 461.75 507.58 437.68 604.06 409.41 723.7 358.32 713.04 321.18 547.61 346.86Q547.55 346.87 547.55 346.87" opacity="0.35"></path><path d="M513.55 475.7C418.1 494.48 344.68 526.01 303.36 565.96 294.93 604.37 312.03 647.74 340.95 689.01 383.1 721.93 419.05 744.32 439.56 748.76 460.44 736.31 462.88 701.15 444.1 644.12 425.32 576.23 387.1 503.88 333.68 436.74 280.63 376.29 215.37 327.18 148.61 290.52 95.08 262.77 58.07 242.61 52.73 226.3 80.29 213.06 146.1 198.16 241.55 179.38 341.43 160.6 426.48 139.73 482.93 120.42 508.51 104.19 506.49 95.04 488.58 98.18 454.93 110.24 423.51 139.42 404.74 186.11 384.43 239.49 381.79 304.23 400.57 372.12 419.35 429.15 457.77 471.92 510.62 498.13 561.93 507.46 622.65 504.99 680.92 496.68 723.44 480.01 745.37 465.95 733.56 460.07 690.89 452.66 613.47 456.92 513.61 475.69Q513.55 475.7 513.55 475.7" opacity="0.14"></path><path d="M479.55 580.09C344.03 608.25 267.84 656.97 251.92 696.63 277.86 714.5 297.38 689.74 269.21 610.12 241.04 506.31 170.53 399.43 107.67 321.41 86.67 258.02 140.03 214.04 275.55 185.87 420.81 157.7 519.19 150.69 554.61 177.16 546.94 218.26 536.56 302.31 564.73 406.12 592.89 485.74 654.27 533.34 698.86 552.38 700.36 549.63 624.81 551.92 479.55 580.09Q479.55 580.09 479.55 580.09" opacity="0.56"></path><path d="M445.55 626.3C277.83 663.85 213 673.58 175.45 576.12 137.89 436.29 141.83 299.07 309.55 261.52 494.08 223.96 589.14 300.29 626.7 440.12 664.25 537.58 630.08 588.74 445.55 626.3Q445.55 626.3 445.55 626.3" opacity="0.79"></path></g></svg>