<svg xmlns="http://www.w3.org/2000/svg" version="1.1" xmlns:xlink="http://www.w3.org/1999/xlink" xmlns:svgjs="http://svgjs.dev/svgjs" viewBox="0 0 800 800" opacity="0.2"><defs><linearGradient x1="50%" y1="0%" x2="50%" y2="100%" id="ssscribble-grad"><stop stop-color="hsl(37, 99%, 67%)" stop-opacity="1" offset="0%"></stop><stop stop-color="hsl(316, 73%, 52%)" stop-opacity="1" offset="100%"></stop></linearGradient></defs><g fill="none" stroke-width="4.5" stroke="url(#ssscribble-grad)" stroke-linecap="round"><path d="M1770.66 303.81C1889.14 324.88 1973.96 341.85 2015.49 354.82 2009.83 367.84 1957.52 376.97 1865.42 382.4 1744.27 388.06 1608.36 390.3 1473.17 389.48 1353.01 389.36 1261.12 386.77 1206.51 382.34 1194.26 379.52 1224.27 375.92 1291.75 372.47 1389.68 372.12 1505.59 373.49 1626.55 377.82 1741.42 387.17 1836.64 401.35 1902.89 421.69 1934.83 448.92 1928.5 483.89 1885.12 527.6 1808.65 578.96 1706.3 639.44 1587.41 709.05 1460.95 784.63 1338.26 867.5 1228.8 956.13 1139.56 1045.6 1077.28 1136.3 1044.94 1225.14 1043.65 1306.61 1071.46 1379.87 1124.11 1441.2 1197.76 1486.63 1284.07 1514.68 1375.53 1522.93 1467.19 1511.33 1549.98 1479.26 1618.19 1427.68 1669.06 1361.8 1697.65 1283.25 1702.79 1197.13 1684.89 1112.53 1644.71 1033.2 1585.19 966.29 1508.7 920.21 1420.16 898.34 1324.22 905.13 1223.35 942.54 1123.61 1009.82 1028.84 1104.25 940.41 1218.54 862.82 1346.17 797.75 1477.39 745.33 1599.68 707.17 1704.19 682.75 1780.86 671.67 1821.89 672.62 1823.52 683.74 1784.71 704.94 1710.75 732.88 1608.02 765.38 1487.62 803.19 1365.69 842.09 1254.66 880.34 1168.96 919.58 1121.72 955.66 1119.14 987.61 1164.3 1017.7 1253.48 1042.43 1377.91 1061.59 1523.82 1077.61 1672.68 1087.91 1807.18 1092.81 1909.69 1094.48 1966.29 1091.3 1969.44 1083.87 1917.86 1073.79 1819.65 1060.3 1687.28 1044.06 1539.61 1025.98 1400.1 1006 1288.14 984.7 1221.69 962.35 1212.71 939.36 1263.09 916.21 1366.84 892.58 1508.7 869.25 1667.81 846.51 1819.6 823.65 1939.76 801.62 2009.19 780.54 2015.78 759.47 1958.42 739.61 1846.66 720.84 1699.2 701.96 1539.13 683.95 1391.93 666.53 1279.93 648.64 1219.4 630.88 1218.58 612.81 1275.87 593.69 1382.55 573.58 1520.51 551.91 1668.36 528.42 1805.8 502.52 1911.14 473.58 1969.78 442 1974.57 406.55 1924.37 366.64 1826.81 323.51 1694.42 275.37 1545.18 221.96 1398.14 165.4 1270.13 103.69 1176.97 37.08 1128.08 -31.38 1127.64 -103.53 1173.38 -178.35 1257.2 -252.18 1369.25 -326.19 1493.26 -398.6 1613.9 -465.71 1719.15 -527.74 1795.03 -582.5 1833.76 -627.19 1832.28 -661.18 1790.09 -682.57 1712.26 -690.64 1605.43 -684.39 1480.58 -663.32 1349.13 -629.59 1220.33 -582.75 1106.1 -524.47 1014.43 -459.86 950.11 -389.66 917.2 -317.7 915.41 -250.68 943.43 -190.42 996.04 -141.54 1066.77 -109.65 1151.28 -96.43 1239.82 -104.8 1325.21 -136.22 1403.98 -190.4 1468 -266.16 1513.61 -359.25 1540.02 -466.21 1544.31 -581.31 1527.26 -696.21 1490.16 -805.23 1435.31 -900.82 1366.29 -975.41 1284.7 -1024.4 1195.87 -1043.5 1103.72 -1031.56 1008.87 -988.89 916.99 -918.44 830.67 -827.78 749.27 -723.08 676.94 -613.76 614.4 -512.02 560.4 -425.98 516.76 -364.96 482.77 -337.03 457.41 -345.28 440.31 -390.92 430.02 -470.86 426.48 -578.89 427.62 -705.65 431.95 -838.49 440.59 -965.38 450.43 -1073.36 460.27 -1150.87 472.38 -1189.98 483.07 -1185.86 491.55 -1139.39 500.97 -1054.66 507.38 -940.68 510.36 -811.66 513.59 -680.94 513.05 -563.96 508.53 -476.03 504.04 -426.87 495.49 -423.33 482.79 -466.96 470.08 -552.85 453.23 -671.33 432.16 -808.09 411.09 -945.1 386.04 -1065.82 357.13 -1157.2 328.21 -1207.51 295.42 -1211.5 258.87 -1169.52 222.34 -1086.4 182.14 -972.22 138.49 -839.46 95.1 -703.26 48.59 -578.28 -0.56 -476.99 -48.78 -409.84 -98.86 -382.57 -149.99 -397.21 -198.84 -450.47 -247.31 -535.23 -294.2 -643.22 -336.76 -761.18 -375.73 -876.62 -409.6 -979.56 -436.72 -1058.14 -456.59 -1105.18 -467.76 -1117.29 -470.29 -1092.64 -462.71 -1034.07 -444.31 -946.4 -417.36 -837.57 -380.14 -716.88 -333.35 -592.62 -281.63 -475.36 -223.85 -373.38 -162.56 -292.44 -103.98 -238.14 -48.18 -212.47 0.93 -215.92 37.48 -246.11 60.41 -298.75 66.18 -370.36 51.9 -453.04 16.86 -539.98 -39.69 -627.06 -115.44 -705.89 -209 -771.41 -316.68 -821.48 -430.98 -851.35 -547.8 -859.93 -659.93 -847.6 -758.29 -814.65 -837.86 -763.5 -892.18 -695.99 -916.67 -616.23 -909.36 -528.19 -869.94 -433.65 -803.16 -338.09 -713.11 -244.96 -607.75 -155.08 -499.74 -73.01 -397.58 -0.51 -312.69 62.57 -256.79 113.93 -235.78 153.57 -254.67 182.08 -313.79 199.57 -409.26 207.32 -533.31 205.54 -672.74 196.34 -814.74 181.44 -943.94 160.2 -1044.92 135.96 -1106.98 110.27 -1122 81.5 -1088.57 53.47 -1010.01 27.25 -895.71 0.41 -762.37 -23.28 -625.93 -43.33 -505.42 -62.59 -419.75 -77.68 -380.5 -88.52 -395.31 -98.07 -463.97 -103.44 -578.4 -104.82 -723.96 -105.01 -879.94 -101.59 -1025.08 -94.86 -1137.94 -87.32 -1201.44 -76.92 -1205.83 -63.97 -1149.49 -50.61 -1041.68 -35.08 -897.64 -17.57 -739.68 0.03 -594.32 19.4 -483.61 40.48 -426.22 61.55 -432.78 84.07 -501.12 108.08 -619.15 132.19 -768.83 158 -924.79 185.69 -1062.49 213.78 -1162.09 244.13 -1207.32 277 -1192.17 310.7 -1119.57 347.36 -1000.46 387.3 -852.82 428.42 -697.01 473.17 -555.54 521.74 -447.28 571.59 -385.65 625.31 -377.8 682.8 -422.49 741.08 -513.09 802.61 -634.78 866.85 -769.94 930.48 -902.16 995.48 -1012.02 1060.77 -1085.76 1122.98 -1115.49 1183.29 -1096.62 1240.12 -1032.24 1290.6 -929.41 1334.92 -800.39 1371.31 -659.67 1398.16 -520.47 1414.77 -398.13 1419.84 -303.76 1413.76 -244.55 1395.45 -224.98 1364.84 -244.06 1324.82 -298.77 1274.68 -380.57 1216.14 -479.42 1154.35 -587.2 1089.55 -690.65 1025.16 -780.07 967.26 -849.63 917.05 -891.32 878.44 -902.46 856.2 -882.99 851.52 -834.16 866.79 -760.48 902.99 -665.96 959.82 -558.35 1036.16 -444.83 1127.95 -329.8 1232.37 -221.71 1344.33 -125.67 1456.15 -43.93 1563.01 18.89 1658.06 61.84 1734.15 84.94 1787.06 88.82 1812.46 75.88 1808.74 47.03 1775.63 6.82 1715.09 -41.08 1633.51 -96.35 1535.87 -152.95 1430.4 -207.82 1328.5 -261.85 1237.66 -309.62 1167.12 -349.62 1125.7 -383.64 1117.34 -408.06 1144.88 -422.91 1207.36 -430.1 1300.52 -428.11 1417.15 -417.94 1546.27 -400.87 1677.05 -377.23 1796.94 -348.36 1893.59 -314.45 1957.84 -277.19 1982.53 -237.82 1965.31 -195.37 1907.28 -152.37 1814.13 -109.81 1697.29 -65.64 1568.26 -22.96 1441.67 17.57 1333.66 58.81 1255.71 97.31 1217.89 132.7 1226.03 168.32 1279.47 200.54 1372.94 229.14 1495.76 257.79 1633.84 282.72 1770.59 303.8Q1770.66 303.81 1770.66 303.81" opacity="0.98"></path><path d="M1659.66 123.23C1768.53 142.39 1850.39 164.14 1897.53 188.48 1906.31 212.91 1875.63 240.1 1809.12 270.16 1713.37 300.55 1597.8 334.08 1473.53 370.92 1351.45 408.33 1243 449.3 1157.43 493.91 1101.55 539.18 1079.61 588.12 1092.27 640.62 1138.12 693.39 1211.48 749.29 1304.91 807.8 1411.27 865.47 1519.62 924.62 1620.64 984.26 1707.46 1041 1771.59 1096.3 1808.33 1148.68 1815.73 1195.3 1792.71 1236.54 1741.55 1270.7 1665.76 1296.12 1571.15 1312.17 1464.54 1317.48 1351.89 1312.33 1241.39 1295.51 1139.68 1266.75 1051.45 1228.76 982.21 1180.51 934.77 1123.48 910.55 1062.66 909.71 997.96 930.47 932.6 971.38 872.74 1027.79 819.34 1095.17 776.39 1170.93 748.97 1248.39 738.35 1322.94 747.28 1392.65 777.17 1451.84 828.06 1497.85 899.3 1530.21 987.1 1546.16 1089 1545.62 1200.13 1529.31 1312.63 1497.75 1421.78 1452.83 1520.5 1395.62 1600.99 1329.07 1658.82 1255.83 1689.09 1176.55 1689.57 1095.24 1659.67 1014.21 1601.03 933.36 1519.93 856.42 1421.4 784.79 1313.92 717.7 1209.47 657.8 1115.96 605.44 1043.28 559.63 1000.8 521.58 992.83 490.83 1022.39 466.66 1088.24 448.88 1185.81 436.6 1307.17 429.72 1440.2 426.94 1573.29 427.25 1692.97 434.26 1814.82 456.95 1793.37 468.83 1652.86 477.63 1527.34 484.69 1394.62 489.57 1270.88 496.37 1142.69 496.38 1172.74 488.86 1330.27 482.83 1469.72 473.58 1614.36 461.06 1745.5 448.53 1845.63 432.72 1901.48 413.56 1904.78 394.41 1855.1 372.13 1759.31 346.82 1630.83 321.5 1486.34 293.16 1345.04 261.88 1224.84 230.63 1140.23 196.5 1101.37 159.64 1111.79 122.94 1169.82 83.69 1266.55 42.17 1388.96 1.16 1523.14 -41.7 1651.05 -85.97 1757.49 -129.03 1831.39 -172.73 1863.16 -216.4 1849.91 -257.75 1793.52 -297.94 1700.32 -336.05 1580.87 -370.35 1446.78 -401.18 1312.62 -427.51 1191.49 -455.93 1061.17 -470.15 1033.7 -452.73 1131.05 -431.82 1227.81 -402.92 1335.12 -366.35 1442.34 -325.23 1541.6 -278.32 1622.02 -226.99 1677.06 -175.49 1703.55 -123.2 1698.4 -72.42 1662.85 -27.67 1599.45 10.91 1513.41 40.71 1411.36 58.22 1298.61 62.92 1183.97 52.95 1074.36 27.2 974.1 -14.44 889.91 -71.91 825.12 -143.03 781.2 -226.72 759.6 -320.33 759.21 -418.77 779.15 -519.49 815.85 -617.87 865.42 -707.87 926.34 -786.26 992.38 -848.47 1059.41 -890.55 1126.64 -910.34 1188.02 -906.07 1240.94 -878.58 1285.78 -828.59 1318.58 -758.9 1338.79 -675.74 1347.49 -583.07 1343.45 -487.5 1327.75 -397.98 1301.3 -319.72 1265.3 -259.52 1221.56 -223.95 1170.19 -215.75 1113.95 -237.2 1054.64 -287.97 991.27 -365.36 927.36 -464.64 864.21 -578.1 799.87 -698.1 737.95 -815.27 679.13 -919.51 620.85 -1002.85 566.41 -1057.82 515.99 -1079.61 466.8 -1065.94 421.67 -1017.45 380.43 -939.27 340.43 -837.34 303.98 -720.88 270.79 -602.22 238.46 -491.37 208.93 -399.41 181.9 -336.69 155.31 -308.87 130.82 -319.57 108.23 -368.63 85.77 -451.46 64.97 -560.33 45.81 -684.33 26.66 -809.71 9.36 -923.9 -6 -1047.7 -27.8 -1064.85 -59.12 -957.25 -67.3 -850.73 -70.85 -730.19 -70.85 -606.69 -66.98 -490.45 -61.87 -391.9 -52.55 -318.87 -38.83 -276.73 -23.88 -268.17 -4.56 -292.52 18.94 -347.48 43.01 -426.6 70.54 -522.22 100.87 -627.43 130.02 -731.71 160.32 -826.46 190.49 -905.72 216.61 -961.9 240.06 -991.15 259.09 -992.19 270.48 -964.45 274.57 -910.46 269.57 -833.63 253.82 -739.62 226.87 -634.8 187.66 -524.48 136.94 -416.35 74.11 -316.43 -0.24 -228.79 -82.68 -158.65 -173.07 -108.58 -268.79 -79.88 -364.31 -72.95 -458.32 -86.34 -546.65 -118.96 -623.65 -166.83 -687.21 -226.03 -733.44 -294.57 -759.35 -366.38 -763.46 -437.34 -744.66 -506.01 -704.98 -566.85 -645.31 -617.25 -568.94 -656.96 -483.22 -682.72 -391.84 -694.09 -301.72 -691.71 -222.29 -675.18 -158.22 -645.79 -116.11 -604.4 -101.86 -552.95 -117.34 -493.57 -163.77 -426.66 -238.75 -355.52 -338.41 -282.2 -456.21 -206.35 -581.97 -131.53 -707.11 -59.2 -820.96 11.7 -912.58 78.11 -974.58 139.36 -1000.52 196.9 -988.06 248.55 -937.78 294.38 -854.07 335.73 -746.99 371.51 -626.09 402.21 -504.45 428.79 -397.44 451.12 -315.87 469.9 -270.28 485.45 -267.82 498.44 -309.56 509.62 -392.57 518.56 -508.12 526.61 -644.3 534.38 -785.87 540.79 -915.68 547.65 -1018.94 555.44 -1082.6 562.51 -1098.66 571.02 -1064.53 581.29 -983.73 591.26 -867.34 603.29 -728.91 617.6 -586.34 631.84 -459.77 648.48 -364.93 667.64 -315.22 686.79 -318.5 708.23 -373.35 731.84 -471.54 755.37 -600.76 780.92 -742.54 808.26 -878.2 835.31 -991.72 863.84 -1067.5 893.51 -1096.65 922.47 -1076.45 952.05 -1009.29 981.77 -904.05 1010.13 -772.93 1037.9 -631.93 1064.43 -497.29 1088.71 -383.12 1110.84 -302.17 1130.06 -261.98 1146.03 -265.86 1158.1 -311.58 1165.53 -392.28 1168.82 -499.5 1166.66 -619.33 1158.51 -738.32 1145.89 -845.64 1127.03 -928.39 1101.84 -978.67 1072.94 -992.65 1038.45 -968.34 998.99 -908.79 958.12 -819.03 914.3 -707.7 868.96 -584.71 826.16 -458.69 785.04 -340.9 747.66 -239.84 706.59 -135.97 687.27 -116.74 718.01 -192.51 756.79 -268.61 809.4 -354.49 875.38 -443.1 952.07 -530.35 1038.61 -607.74 1132.39 -670.44 1228.45 -716.57 1324.78 -741.77 1417.21 -745.38 1500.29 -728.04 1571.44 -690.56 1626.69 -635.75 1662.7 -565.4 1677.76 -484.03 1670.38 -395.68 1641.63 -301.83 1592.13 -208.11 1524.44 -117.77 1444.47 -31.2 1355.6 47.07 1263.82 115.58 1177.54 174.86 1101.35 222.68 1041.6 259.29 1004.69 285.44 993.29 301.31 1009.91 308.24 1054.74 306.44 1125.73 298 1219.03 284.58 1327.83 265.4 1445.36 243.72 1563.02 220.98 1671.09 195.34 1761.86 170.58 1827.65 147.67 1862.81 123.91 1864.25 103.14 1831.24 85.83 1767.35 68.8 1677.08 55.66 1568.24 46.52 1452.13 38.04 1338.11 33.52 1237.2 32.85 1137.55 34.51 1166.02 55.63 1293.15 74.24 1409.25 87.73 1535.59 104.07 1659.59 123.22Q1659.66 123.23 1659.66 123.23" opacity="0.93"></path><path d="M1548.66 792C1647.65 809.24 1725.43 827.03 1776.05 845.27 1796.4 863.4 1784.53 881.76 1741.95 900.09 1672.27 917.99 1581.11 935.45 1475.75 952.04 1363.73 967.7 1253.75 981.9 1153.69 994.13 1008.7 1013.79 965.85 1021.26 1029.06 1012.23 1178.64 992.19 1366.37 952.28 1540.1 892.21 1660.48 826.06 1693.79 748.18 1635.79 667.91 1499.7 605.73 1315.99 564.5 1122.51 559.28 949.47 601.18 828.03 693.22 770.96 834.72 780.55 1006.61 845.92 1194.21 947.11 1368.41 1070.62 1493.91 1188.12 1550.29 1282.29 1520.41 1348.31 1413.32 1373.03 1248.42 1357.99 1066.77 1307.45 926.42 1227.6 865.7 1128.95 914.69 1013.79 1068.85 895.67 1293.08 782.02 1525.35 668.67 1691.81 567.14 1740.96 478.87 1651.63 396.33 1457.83 326.48 1224.8 267.52 1041.62 239.56 995.05 213.73 985.67 189.74 1015.66 166.4 1082.93 144.52 1181.45 123.88 1301.95 103.55 1431.94 84.16 1558.62 65.57 1668.55 47.07 1749.69 29.21 1793.24 11.97 1793.78 -5.26 1751.32 -21.69 1670.61 -37.24 1560.98 -52.71 1434 -67.14 1303.49 -80.39 1183.01 -99.06 1050.87 -127.09 1023.03 -135.13 1127.51 -141.21 1350.6 -135.24 1576.49 -115.26 1721.15 -89.55 1736.93 -49.27 1616.98 4.31 1405.58 58.2 1166.85 118.05 975.42 176.59 880.66 218.62 900.91 243.5 1019.27 240.89 1191.39 202.79 1372.95 126.74 1507.51 11.38 1564.09 -132.12 1533.81 -296.97 1422.96 -465.68 1258.83 -612.06 1066.36 -720.47 883.46 -770.78 735.21 -754.42 632.4 -671.39 585.42 -534.24 587.69 -376.67 633.73 -226.38 705.69 -121.04 787.18 -93.8 876.39 -155.21 952.72 -300.87 1009.61 -499.87 1053.51 -710.06 1074.03 -879.1 1074.15 -961.77 1061.11 -935.39 1033.84 -803.7 997.78 -710.3 977.31 -606.18 955.87 -499.22 934 -398.91 911.23 -311.99 888.64 -245.73 866.64 -206.55 844.26 -197.27 822.85 -219.34 802.7 -271.69 782.44 -350.34 763.64 -449.33 746.39 -560.61 729.15 -673.92 713.68 -780.03 699.88 -871.56 685.98 -940.3 673.55 -981.21 662.36 -991.98 650.77 -971.46 640.02 -921.78 629.72 -846.86 618.52 -752.58 607.16 -646.19 595.11 -426.51 566.14 -249.31 529.54 -158.26 480.02 -172.39 417.34 -280.44 335.59 -446.6 231.93 -630.72 115.29 -780.14 -19.3 -860.42 -165.14 -857.23 -303.25 -769.84 -430.18 -619.85 -529.38 -432.92 -584.81 -246.04 -589.17 -88.82 -535.71 21.38 -436.82 70.94 -301.26 62.92 -153.99 3.13 -35.05 -89.28 32.77 -194.73 22.34 -304.83 -74.93 -396.68 -247.87 -460.77 -465.33 -498.01 -673.36 -500.76 -825.16 -473.32 -876.18 -419.92 -812.2 -346.55 -648.89 -261.5 -435.44 -164.4 -249.3 -66.35 -151.78 27.35 -186.99 123.04 -351.09 209.79 -593.43 286.04 -829.84 323.8 -916.75 358.87 -971.1 391.25 -986.9 423.38 -962.64 452.93 -899.97 479.91 -804.71 506.75 -687.66 531.17 -559.73 553.16 -434.47 575.11 -326.56 594.73 -246.71 611.97 -204.22 629.21 -204.74 643.88 -247.39 655.98 -326.79 668.04 -434.98 677.46 -559.08 684.21 -685.66 690.8 -802.76 694.6 -897.06 695.54 -959.29 696.23 -984.24 693.96 -969.02 688.72 -915.81 677.51 -719.34 654.64 -469.84 621.52 -256.57 590.37 -147.75 553.57 -174.42 516.22 -315.59 490.93 -522.58 475.82 -718.72 479.04 -842.14 508.2 -860.39 565.92 -766.27 656.29 -590.03 773.53 -372.48 916.7 -169.17 1076.14 -21.35 1230.93 49.25 1370.7 35.93 1475.7 -44.35 1528.92 -173.34 1522.42 -313.59 1452.94 -436.15 1336.45 -528.33 1187.97 -569.04 1036.93 -557.81 922.85 -499.45 868.86 -403.27 896.41 -284.48 1007.43 -147.59 1184.94 -11.44 1394.33 114.46 1585.78 234.3 1716.29 335.45 1749.9 418.06 1678.34 489.67 1517.62 546.08 1311.25 591.45 1211.51 611.74 1123.09 630.34 1053.22 647.76 1008.58 664.23 992.29 680.12 1006.45 695.8 1050.75 711.06 1122.06 726.52 1215.3 742.45 1323.13 758.26 1437.32 774.75 1548.59 791.99Q1548.66 792 1548.66 792" opacity="0.69"></path><path d="M1437.66 257.77C1599.91 288.42 1680.56 307.61 1662.36 316.2 1552.27 325.37 1377.6 325.28 1180.88 318.08 945.7 310.85 952.56 313.55 1162.81 349.27 1326.61 396.56 1462.83 465.93 1546.7 560.43 1567.14 672.98 1519.05 805.8 1413.8 951.68 1266.09 1092.4 1100.38 1222.37 939.52 1325.15 797.91 1384.72 693.52 1393.68 632.21 1345.63 614.85 1250.76 637.02 1117.74 688.54 968.99 765 840.61 849.87 754.43 932.22 736.64 1012.06 799.91 1075.26 938.63 1118.65 1131.29 1146.78 1335.32 1153.86 1509.55 1142.92 1610.06 1118.09 1610.55 1080.7 1508.77 1035.38 1329.12 982.37 1126.84 927.01 956.59 872.82 873.77 815.78 910.23 763.17 1058.64 716.94 1278 670.13 1499.1 630.95 1651.95 600.3 1682.78 569.65 1580.36 548.25 1380.44 535.36 1151.2 521.88 964.35 515.67 877.64 514.9 911.82 511.28 1053.82 509.86 1253.78 507.26 1449.37 496.97 1588.77 479.92 1629.4 451.63 1564.24 409.45 1410.75 350.57 1209.08 272.12 1007.75 178.4 846.17 66.33 758.03 -60.74 752.43 -190.33 824.69 -320.82 950.05 -441.14 1096.6 -536.52 1241.17 -600.78 1349.79 -623.59 1406.37 -602.46 1407.17 -536.33 1351.26 -430.91 1251.29 -306.25 1116.98 -174.66 968.8 -58.87 822.97 14.46 684 32.85 567.88 -14.93 478.26 -126.14 412.35 -287.34 372.35 -473.6 352.73 -649.18 351.37 -783.42 360.93 -847.03 374.89 -826.48 396.84 -723.64 415.77 -559.02 427.93 -374.13 442.04 -208.48 446.4 -104.46 439.58 -92.32 432.94 -176.08 414.58 -338.33 383.93 -538.81 353.28 -722.8 311.07 -845.13 258.01 -879.74 205.13 -817.57 141.95 -676.43 70.03 -488.3 0.06 -296.36 -75.64 -140.82 -153.2 -50.09 -222.77 -39.28 -286.77 -103.41 -338.54 -228.23 -372.05 -381.84 -383.86 -532.08 -368.29 -656.09 -329 -727.15 -261.75 -736.06 -170.03 -683.81 -71.43 -578.79 31.11 -438.84 121.58 -278.61 177.7 -121.4 191.53 16.32 150.57 126.93 53.83 199.73 -93.03 234.81 -273.78 233.8 -456.54 203.74 -616.04 154.27 -720.23 87.16 -746.56 16.89 -688.14 -48.76 -553.92 -113.1 -379.94 -163.89 -203.23 -199.33 -72.2 -225.91 -29.48 -236.94 -90.05 -234.61 -246.73 -224.6 -459.61 -204.99 -674.21 -178.87 -828.06 -148.87 -874.1 -116.01 -796.44 -82.59 -615.68 -48.17 -392.51 -15.15 -195.67 15.49 -93.22 46.14 -124.01 73.71 -273.72 98.99 -488.75 125.27 -702.07 151.24 -841.48 179.04 -866.14 210.72 -771.52 247.89 -586.65 293.49 -367.07 346.77 -170.11 412.24 -48.35 491.92 -26.35 580.48 -104.37 683.07 -253.62 797.74 -430.31 913.73 -595.63 1032.86 -704.66 1147.21 -736.04 1243.93 -686.35 1319.62 -566.05 1364.5 -401.48 1373.29 -216.54 1342.59 -45.26 1272.16 89.79 1174.61 178.03 1055.66 211.17 931.61 195.47 827.86 136.56 756.96 52.22 736.61 -41.25 777.42 -139.89 878.18 -223.85 1029.52 -286.08 1207.09 -330.25 1385.69 -347.84 1532.98 -342.02 1619.6 -317.77 1628.76 -277.04 1555.35 -226.05 1417.12 -165.08 1239.82 -101.48 1063.51 -39.85 934.19 25.14 881.02 84.07 921.67 134.59 1050.03 185.71 1237.12 227.11 1437.59 257.76Q1437.66 257.77 1437.66 257.77" opacity="0.28"></path><path d="M1326.66 160.01C1472.3 186.83 1557.94 221.77 1569.25 264.83 1506.64 308.44 1382.16 361.13 1220.3 423.23 1048.09 486.65 895.85 559.94 786.9 642.37 735.55 724.57 746.63 813.25 813.05 904.92 924.35 989.38 1057.64 1068.98 1191.06 1137.08 1310.12 1185.86 1394.03 1212.8 1433.75 1211.83 1427.72 1183.82 1376.09 1125.77 1287.6 1039.98 1169.91 940.77 1037.51 831.53 903.24 726.38 772.89 646.47 659.55 600.11 568.52 600.9 500.04 655.36 457.36 761.75 437.6 911.39 439.25 1081.76 456.82 1252.36 484.56 1394.87 523.62 1482.34 564.62 1499.51 603.25 1439.46 644.54 1315.85 678.87 1149.36 704.59 975.05 729.13 836.65 744.16 763.57 749.76 778.13 753.93 881.53 749.55 1053.04 737.2 1254.3 724.35 1435.47 704.44 1552.18 677.62 1571.78 650.8 1488.67 617.7 1325.37 578.32 1125.65 538.43 937.61 491.33 807.06 436.58 761.41 380.4 808.47 315.68 932.01 242.48 1099.19 168.11 1275.59 86.14 1417.82 -1.62 1497.43 -86.73 1502.1 -173.05 1430.34 -256.15 1299.07 -327.93 1129.67 -388.26 953.68 -431.24 798.42 -452.82 681.5 -450.06 618.65 -419.95 611.17 -367.3 655.98 -290.78 739.09 -195.59 843.42 -96.46 959.74 2.44 1066.12 88.47 1150.76 145.28 1211.79 167.05 1239.19 145.16 1234.38 77.51 1200.91 -32.38 1142.64 -175.36 1067.34 -332.71 976.41 -487.86 880.17 -618.81 784.85 -704.89 686.59 -733.44 595.83 -697.22 514.77 -603.4 436.17 -463.97 368.17 -302.12 310.34 -150.61 254.94 -34.02 208.07 23.27 168.7 6.65 130.14 -81.69 97.59 -227.33 70.76 -402.39 43.94 -569.24 23.49 -696.14 9.81 -762.76 -3.06 -755.48 -7.66 -678.29 -2.85 -545.6 4.38 -381.47 22.69 -214.03 52.63 -67.36 85.03 35.69 128.16 83.45 179.94 72.03 228.78 8.21 279.69 -93.55 326.6 -220.58 357.86 -349.16 373.39 -461.4 365.53 -548.13 329.01 -595.1 261.71 -599.57 162.31 -563.47 39.3 -491.02 -103.9 -391.91 -255.37 -272.15 -394.86 -145.16 -511.45 -20.86 -587.94 98.35 -612.15 201.75 -579.18 286.21 -490.19 353.39 -362.87 400.3 -212.87 429.62 -67.39 443.09 39.96 444.37 89.88 437.89 65.57 422.3 -33.67 404.81 -193.35 388.86 -384.88 362.2 -635.39 338.87 -664.41 347.22 -420.38 355.67 -225.96 373.11 -65.37 399.93 17.77 426.75 -1.79 462.31 -115.75 506.09 -291.6 549.83 -487.56 601.6 -651.2 660.55 -744.27 718.73 -748.5 782.84 -662.64 850.94 -509.11 915.56 -319.67 980.68 -135.71 1042.76 7.56 1095.72 87.29 1139.77 91.98 1170.34 28.45 1185.07 -90.13 1180.92 -234.74 1155.08 -377.18 1111.96 -498.9 1048.49 -575.44 967.65 -598.23 881.72 -567.35 791.56 -487.52 706.94 -372.46 642.99 -232.16 604 -86.09 599.56 51.48 635.69 175.66 712.51 273.62 827.16 342.98 967.33 385.28 1121.89 401.09 1272.84 396.35 1398.55 372.29 1484.23 338.01 1515.33 300.04 1487.25 254.85 1401.66 213.8 1270.13 180.26 1117.83 146.49 966.51 122.89 844.16 110.04 777.3 98.52 777.89 97.3 849.79 105.93 981.98 115.12 1151.54 133.18 1326.59 160Q1326.66 160.01 1326.66 160.01" opacity="0.69"></path><path d="M1215.66 798.73C1343.48 821.72 1429.15 845.05 1462.01 868.05 1439.88 890.3 1365.8 910.73 1251.59 927.71 1111.67 941.84 964.99 949.91 829.48 949.81 718.67 944.24 645.02 927.91 613.67 899.37 626.01 864.54 676.81 817.47 756.86 759.22 859.36 699.36 968.68 633.86 1072.9 567.77 1166.69 512.46 1237.51 467.77 1280.78 441.1 1296.66 440.33 1282.76 467.36 1242.63 525.82 1179.2 613.04 1098.44 727.26 1006.93 861.58 906.07 1001.09 804.67 1136.98 707.45 1254.02 612.81 1336.37 527.89 1375.25 454 1362.72 387.78 1301.05 332.98 1195.01 288.42 1058.07 251.16 914.69 221.74 782.93 198.07 686.05 179.07 644.71 162.98 666.51 147.91 752.29 134.95 889.48 120.93 1057.25 104.6 1226.74 88.8 1366.27 69.66 1450.37 46.67 1460.78 23.68 1395.27 -2.6 1267.1 -31.58 1102.33 -60.03 930.3 -90.13 782.72 -120.53 683.84 -148.81 648.09 -175.31 678.57 -198.02 765.73 -216.06 895.79 -227.47 1042.71 -230.05 1182.1 -225.32 1297.07 -209.37 1367.4 -180.9 1385.56 -144.75 1351.6 -96.48 1270.48 -37.27 1154.94 24.5 1016.1 91.68 872.34 159.65 738.28 218.28 621.64 267.46 534.28 300.77 479.44 310.76 457.24 295.97 465.56 252.95 498.06 182.53 552.61 86.11 618.34 -31.6 687.57 -159.76 761.27 -291.36 827.81 -414.36 883.44 -514.91 932.64 -584.46 967.54 -613.64 988.56 -599.14 1000.95 -540.46 1001.31 -442.62 992.08 -320.08 976.72 -184.38 955.23 -53.33 930.15 51.99 902.18 119.31 873.42 136.89 845.61 99.48 817.08 11.48 790.94 -116.33 767.95 -265.86 744.96 -412.57 725.67 -535.64 709.42 -621.12 692.45 -655.67 677.09 -636.58 661.7 -567.89 643.43 -459 622.34 -325 595.99 -180.36 563.52 -43.22 522.33 72.04 470.1 156.11 409.25 201.27 335.51 206.79 248.56 173.8 155.19 110.11 52 25.51 -57.12 -74.48 -161.78 -175.32 -261.74 -267.46 -349.18 -348.13 -414.58 -406.91 -454.48 -441.11 -462.42 -452.09 -437.73 -438.02 -379.06 -402.34 -289.58 -347.36 -182.67 -277.99 -64.5 -199.54 50.4 -112.09 142.01 -23.19 200.86 63.33 214.33 150.43 175.68 230.98 86.63 303.63 -45.18 373.08 -201.41 434.01 -363.3 486.83 -506.34 536.31 -606.49 578.99 -647.96 615.91 -621.11 650.91 -531.12 681.81 -390.33 709.47 -222.85 736.59 -62.62 761.52 63.23 784.51 128.77 807.5 118.39 828.01 36.64 845.67 -98.31 862.78 -263.26 876.01 -424.27 884.36 -552.6 890.8 -629.53 890.72 -640.37 882.94 -586.08 871.84 -476.24 851.74 -329.51 822.14 -169.28 789.32 -15.48 747.62 109.29 698.28 191.47 649.49 224.52 597.24 207.93 545.21 149.51 502.19 56.41 467.03 -53.87 444.94 -166.24 442.14 -273.41 459.63 -358.94 500.74 -416.04 565.06 -444.37 652.52 -439.83 760.34 -406.18 879.62 -346.61 1006.06 -267.7 1129.99 -176.97 1238.54 -75.44 1324.51 26.69 1378.02 124.3 1393.02 220.3 1366.6 306.22 1299.39 380.89 1200.98 449.27 1078.82 506.43 947.15 553.7 826.11 595.52 728.2 630.03 668.37 659.26 658.13 685.63 699.42 709.32 789.44 731.85 917.04 753.62 1066.06 775.73 1215.59 798.72Q1215.66 798.73 1215.66 798.73" opacity="0.11"></path><path d="M1104.66 213.8C1213.53 232.96 1294.5 245.32 1340.51 251.33 1349.27 257.62 1319.51 258.15 1255.54 253.85 1163.52 250.85 1052.56 244.5 933.04 236.43 813.27 231.92 704 228.39 612.9 228.25 544.49 235.17 503.16 249.09 489.29 272.64 502.66 306.74 539.31 353.36 594.06 413.89 664.83 485.29 742.81 569.78 821.9 665.67 901.32 765.67 972.37 870.01 1031.63 973.13 1080.45 1065.77 1113.6 1145.33 1131.08 1204.8 1135.16 1238.27 1124.84 1242.76 1102.35 1215.46 1069.05 1159.73 1027.26 1076.74 979.79 972.68 925.92 860.93 869.97 748.42 814.16 647.72 755.63 573.66 699.57 532.99 647.31 533.39 594.38 577.68 546.24 662.76 503.54 781.17 460.86 919 423.79 1061.72 392.64 1191.4 361.55 1290.62 336.28 1346.48 317.12 1349.78 297.96 1300.1 285.37 1204.5 279.15 1077.14 272.99 933.86 273.29 793.68 279.84 673.45 286.41 585.51 299.06 539.38 317.23 537.54 334.74 579.14 356.78 656 382.1 756.98 404.72 873.56 428.29 989.39 450.7 1092.52 472.35 1204.75 465.61 1227.12 425.02 1142.4 380.13 1055.74 320.68 955.88 246.75 850.38 162.38 741.51 67.41 638.63 -34.62 546.17 -136.33 463.46 -235.63 395.99 -326.36 343.91 -401.05 305.27 -456.26 280.63 -486.72 267.5 -489.94 265.06 -464.22 270.07 -409.86 279.51 -332.8 295.08 -236 311.31 -127.04 325.92 -18.33 343.11 83.47 356.35 168.09 364.33 224.67 373.04 248.8 375.5 236.25 371.03 186.45 366.66 103.53 355.09 -5.33 335.94 -129.34 316.79 -253.5 290.5 -365.38 257.55 -456.8 224.71 -517.2 185.49 -542.1 140.64 -531.15 96.54 -485.18 47.81 -409.76 -4.12 -311.04 -53.49 -198.35 -103.74 -81.24 -152.52 33.58 -195.17 136.46 -232.55 221.29 -261.58 285 -279.91 324.03 -285.81 338.63 -276.7 329.21 -254.15 299.42 -215.2 253.85 -159.91 193.62 -94.86 126.58 -18.29 57.81 65.46 -13.15 145.85 -78.24 221.8 -134.55 285.86 -184.42 328.21 -222.2 346.39 -247.65 335.05 -263.8 292.06 -268.2 218.18 -262.39 116.54 -248.52 -3.67 -226.96 -135.11 -199.83 -265.73 -167.45 -380.76 -132.19 -470.11 -95.94 -522.53 -57 -531.52 -19.04 -494.56 16.58 -414.03 53.25 -301.2 86.47 -166.66 115.39 -27.18 144.55 96.39 168.94 190.06 188.1 239.77 207.26 236.49 220.73 182.6 228.89 87.19 237.28 -38.69 240.83 -175.77 240.3 -306.22 239.56 -455.22 232.03 -489.73 232.22 -375.07 238.29 -260.34 249.1 -132.22 266.69 -3.38 292.33 117.76 327.26 219.32 372.93 295.02 427.9 342.27 494.19 359.12 571.47 348.29 655.18 311.44 746.58 255.8 842.66 188.28 936.54 110.27 1027.5 32.24 1110.35 -40.35 1178.55 -108.82 1229.67 -164.81 1259.05 -206.69 1264.4 -237.7 1243.94 -253.78 1197.34 -256.44 1129.6 -248.54 1042.33 -230.09 941.56 -203.82 838.49 -170.48 738.27 -132.93 650.35 -93.66 585.73 -50.84 548.9 -8.99 545.33 30.12 577.61 70.55 643.63 106.8 738.83 137.82 854.49 169.12 980.59 194.63 1104.59 213.79Q1104.66 213.8 1104.66 213.8" opacity="0.36"></path><path d="M993.66 200.27C1155.91 230.92 1234.59 281.89 1216.63 352.57 1111.81 425.01 946.31 519.14 760.32 631.88 583.73 741.87 450.69 859.81 375.48 970.18 360.35 1050.48 397.03 1093.77 466.45 1081.23 563.35 1014.56 660.06 890.9 741.95 728.17 817.24 573.55 866.58 452.95 890.76 409.18 903.82 467.5 898.15 621.99 879.76 839.65 857.59 1055.91 829.65 1207.95 799 1238.78 768.35 1136.36 736.43 937.58 700.8 712.3 661.38 523.97 611.29 425.91 545.11 432.49 467.81 535.2 368 692.53 245.46 856.71 116.33 1002.93 -24.37 1090.62 -161.45 1112.54 -271.04 1075.72 -344.06 989.86 -360.85 878.08 -317.56 744.83 -212.01 615.75 -57.89 503.14 105.63 393.77 253.68 306.28 346.67 240.26 352.8 177.45 267.91 131.16 105.66 100.5 -94.81 69.85 -275.31 56.28 -392.88 61.28 -428.99 69.49 -374.49 101.21 -249.47 157.46 -78.12 216.95 102.63 295.55 261.73 381.57 385.66 446.11 458.13 487.97 482.31 484.64 462.48 422.56 414.08 298.54 354.14 120.41 279.96 -75.67 214.79 -260.5 166.7 -385.7 120.71 -414.77 95.34 -334.18 90.31 -157.69 87.41 55.73 101.6 248.31 132.25 350.77 162.9 319.98 208.56 174.17 269.26 -30.24 332.09 -236.09 413.22 -373.15 512.32 -409.02 613.53 -342.81 729.17 -194.74 850.6 -8.21 957.79 186.44 1050.2 346.44 1110.21 453.3 1126.22 506.03 1090.1 506.75 998.1 473.71 870.92 410.59 717.65 343.13 568.76 286.26 466.2 226.64 429.13 188.26 477.05 173.62 606.43 160.74 793.12 169.62 993.59 200.26Q993.66 200.27 993.66 200.27" opacity="0.98"></path><path d="M882.66 799.66C1052.36 833.3 1070.33 878.27 931.96 871.82 803.48 853.84 668.23 815.68 540.87 755.14 425.21 685.69 333.44 597.95 267.74 499.86 215.04 375.59 221.05 311.65 246.64 431.2 269.08 567.96 284.37 731.79 288.65 897.28 293.9 1033.48 285.94 1117.37 262.95 1127.78 239.96 1062.27 203.03 934.73 154.42 773.51 106.79 604.19 49.68 457.4 -12.59 353.36 -69.29 300.57 -124.6 301.53 -171.34 346.13 -202.81 428.66 -215.7 527.68 -203.19 626.48 -167.61 726.03 -103.1 805.88 -11.38 861.6 92.03 902.8 206.66 920.57 318.29 919.89 405.34 909 461.21 887.89 472.81 862.48 432.9 834.2 344.48 807.15 216.66 784.16 67.12 761.17 -76.72 743.32 -194.49 728.25 -277.62 710.31 -312.09 689.6 -298.37 660.66 -241.88 621.5 -151.01 565.88 -39.95 489.26 85.29 398.11 208.57 285.27 320.08 155.59 421.82 26.65 503.78 -99.62 566.04 -206.1 614.33 -274.65 647.45 -296.24 670.3 -260.31 685.28 -173.14 696.98 -39.44 709.79 120.98 720.55 273.33 736.45 396.23 759.44 461.77 782.43 451.39 811.41 372.17 844.01 244.86 874.55 88.24 904.68 -62.52 929.54 -182.43 946.54 -262.39 951.28 -287.29 938.43 -260.87 911.61 -190.22 862.66 -88 791.05 28.91 709.68 157.13 613.65 277.88 512.34 382.76 425.2 478.74 354.94 554.76 315.3 612.57 318.41 661.42 365.95 698.12 457.94 727.03 584.56 753.08 733.06 776.66 882.59 799.65Q882.66 799.66 882.66 799.66" opacity="0.29"></path><path d="M771.66 172.55C933.91 203.2 1008.6 194.8 991.83 163.3 900.41 146.82 760.58 138.95 613.52 173.05 460.19 263.73 334 422.94 243.98 632.83 162.43 835.5 107.18 985.96 76.53 1016.78 45.87 914.36 42.73 717.88 71.15 504.55 108.06 316.75 186.41 200.95 299.57 157.27 406.45 172.5 513.77 216.98 582.72 254.98 577.02 303.73 489.91 319.53 327.66 288.88 127.17 258.25 -46.27 184.05 -152.86 82.18 -192.3 -8.92 -155.84 -101.26 -72.48 -156.67 45.91 -153.18 167.64 -69.91 267.35 95.4 368.67 286.25 438.95 470.32 469.6 572.77 500.27 541.98 488.4 403.95 440.2 223.75 393.62 36.31 319.72 -90.38 241.49 -140.9 198.3 -134.82 194.33 -79.12 256.23 -9.52 385.27 75.09 571.13 141.89 771.59 172.54Q771.66 172.55 771.66 172.55" opacity="0.23"></path></g></svg>